<?xml version="1.0" encoding="UTF-8" standalone="no"?>
<!-- Created with Inkscape (http://www.inkscape.org/) -->

<svg
   xmlns:dc="http://purl.org/dc/elements/1.1/"
   xmlns:cc="http://creativecommons.org/ns#"
   xmlns:rdf="http://www.w3.org/1999/02/22-rdf-syntax-ns#"
   xmlns:svg="http://www.w3.org/2000/svg"
   xmlns="http://www.w3.org/2000/svg"
   xmlns:sodipodi="http://sodipodi.sourceforge.net/DTD/sodipodi-0.dtd"
   xmlns:inkscape="http://www.inkscape.org/namespaces/inkscape"
   width="32mm"
   height="32mm"
   viewBox="0 0 32 32"
   version="1.1"
   id="svg3920"
   inkscape:version="0.92.4 (5da689c313, 2019-01-14)"
   sodipodi:docname="favicon.svg">
  <defs
     id="defs3914" />
  <sodipodi:namedview
     id="base"
     pagecolor="#ffffff"
     bordercolor="#666666"
     borderopacity="1.0"
     inkscape:pageopacity="0.0"
     inkscape:pageshadow="2"
     inkscape:zoom="1.979899"
     inkscape:cx="146.36523"
     inkscape:cy="-9.4533666"
     inkscape:document-units="mm"
     inkscape:current-layer="layer1"
     showgrid="false"
     fit-margin-top="0"
     fit-margin-left="0"
     fit-margin-right="0"
     fit-margin-bottom="0"
     inkscape:window-width="1920"
     inkscape:window-height="1027"
     inkscape:window-x="1912"
     inkscape:window-y="-8"
     inkscape:window-maximized="1" />
  <metadata
     id="metadata3917">
    <rdf:RDF>
      <cc:Work
         rdf:about="">
        <dc:format>image/svg+xml</dc:format>
        <dc:type
           rdf:resource="http://purl.org/dc/dcmitype/StillImage" />
        <dc:title></dc:title>
      </cc:Work>
    </rdf:RDF>
  </metadata>
  <g
     inkscape:label="Ebene 1"
     inkscape:groupmode="layer"
     id="layer1"
     transform="translate(-97.162078,-110.19941)">
    <g
       id="g4759"
       style="fill:#3f3f3f;fill-opacity:1">
      <rect
         y="110.19941"
         x="97.162079"
         height="32"
         width="32"
         id="rect3950"
         style="fill:#3f3f3f;stroke-width:0.11444091;fill-opacity:1" />
    </g>
    <path
       inkscape:connector-curvature="0"
       id="ellipse3853"
       style="fill:#009373;fill-opacity:1;stroke-width:0.29954436"
       d="m 104.71636,126.22936 a 5.1161167,4.7441321 0 0 0 4.98264,3.6928 5.1161167,4.7441321 0 0 0 0.99477,-0.0956 z m 5.71335,-11.53882 a 10.498006,9.6131094 0 0 0 -10.498073,9.61336 10.498006,9.6131094 0 0 0 10.498073,9.61285 10.498006,9.6131094 0 0 0 6.64455,-2.17764 l 6.07818,5.45703 0.001,-0.001 a 1.9314583,1.9314583 0 0 0 1.30793,0.51314 1.9314583,1.9314583 0 0 0 1.93115,-1.93166 1.9314583,1.9314583 0 0 0 -0.72967,-1.50947 l -6.00794,-5.39395 a 10.498006,9.6131094 0 0 0 1.27279,-4.56923 10.498006,9.6131094 0 0 0 -10.49807,-9.61336 z m -0.0729,2.72438 a 7.3685569,6.922706 0 0 1 7.36854,6.92257 7.3685569,6.922706 0 0 1 -7.36854,6.92258 7.3685569,6.922706 0 0 1 -7.36854,-6.92258 7.3685569,6.922706 0 0 1 7.36854,-6.92257 z" />
  </g>
</svg>
