<?xml version="1.0" encoding="UTF-8" standalone="no"?>
<svg
   xmlns:dc="http://purl.org/dc/elements/1.1/"
   xmlns:cc="http://creativecommons.org/ns#"
   xmlns:rdf="http://www.w3.org/1999/02/22-rdf-syntax-ns#"
   xmlns:svg="http://www.w3.org/2000/svg"
   xmlns="http://www.w3.org/2000/svg"
   id="svg3920"
   version="1.1"
   viewBox="0 0 103.52108 23.01774"
   height="23.01774mm"
   width="103.52108mm">
  <defs
     id="defs3914" />
  <metadata
     id="metadata3917">
    <rdf:RDF>
      <cc:Work
         rdf:about="">
        <dc:format>image/svg+xml</dc:format>
        <dc:type
           rdf:resource="http://purl.org/dc/dcmitype/StillImage" />
        <dc:title></dc:title>
      </cc:Work>
    </rdf:RDF>
  </metadata>
  <g
     transform="translate(-97.162078,-119.18167)"
     id="layer1">
    <path
       d="m 101.9468,130.72049 a 5.1161167,4.7441321 0 0 0 4.98264,3.6928 5.1161167,4.7441321 0 0 0 0.99477,-0.0956 z m 5.71335,-11.53882 a 10.498006,9.6131094 0 0 0 -10.498072,9.61336 10.498006,9.6131094 0 0 0 10.498072,9.61285 10.498006,9.6131094 0 0 0 6.64455,-2.17764 l 6.07818,5.45703 0.001,-0.001 a 1.9314583,1.9314583 0 0 0 1.30793,0.51314 1.9314583,1.9314583 0 0 0 1.93115,-1.93166 1.9314583,1.9314583 0 0 0 -0.72967,-1.50947 l -6.00794,-5.39395 a 10.498006,9.6131094 0 0 0 1.27279,-4.56923 10.498006,9.6131094 0 0 0 -10.49807,-9.61336 z m -0.0729,2.72438 a 7.3685569,6.922706 0 0 1 7.36854,6.92257 7.3685569,6.922706 0 0 1 -7.36854,6.92258 7.3685569,6.922706 0 0 1 -7.36854,-6.92258 7.3685569,6.922706 0 0 1 7.36854,-6.92257 z"
       style="fill:#ffffff;fill-opacity:1;stroke-width:0.29954436"
       id="ellipse3853" />
    <g
       id="text3847"
       style="font-size:64.38999939px;opacity:1;vector-effect:none;fill:#000000;fill-opacity:1;stroke:none;stroke-width:5.36583376;stroke-linecap:butt;stroke-linejoin:miter;stroke-miterlimit:4;stroke-dasharray:none;stroke-dashoffset:0;stroke-opacity:1"
       transform="matrix(0.2648041,0,0,0.26436275,85.442147,82.399222)"
       aria-label="uerimonia">
      <path
         id="path3865"
         style="font-style:normal;font-variant:normal;font-weight:normal;font-stretch:normal;font-size:74.66666412px;font-family:'Yu Gothic UI Light';-inkscape-font-specification:'Yu Gothic UI Light, ';fill:#ffffff;stroke-width:5.36583376"
         d="m 157.96432,197.0233 v -6.78125 h -0.14584 q -3.90104,7.69271 -12.03125,7.69271 -13.23437,0 -13.23437,-16.66146 v -21.58333 h 3.39062 v 20.74479 q 0,7.58333 2.47917,11.01042 2.51563,3.42708 7.875,3.42708 5.21354,0 8.42187,-3.82813 3.2448,-3.82812 3.2448,-10.20833 v -21.14583 h 3.35416 v 37.33333 z" />
      <path
         id="path3867"
         style="font-style:normal;font-variant:normal;font-weight:normal;font-stretch:normal;font-size:74.66666412px;font-family:'Yu Gothic UI Light';-inkscape-font-specification:'Yu Gothic UI Light, ';fill:#ffffff;stroke-width:5.36583376"
         d="m 174.0789,178.50247 q 0,7.69271 3.53646,12.03125 3.57291,4.33854 9.77083,4.33854 6.27083,0 12.25,-4.63021 v 3.57292 q -5.79687,4.11979 -12.94271,4.11979 -7.21875,0 -11.66666,-5.17708 -4.44792,-5.17709 -4.44792,-14.6198 0,-8.16666 4.63021,-13.74479 4.66666,-5.61458 12.10416,-5.61458 6.96355,0 10.6823,4.88542 3.71874,4.88541 3.71874,13.34375 v 1.49479 z m 24.13541,-3.0625 q -0.21874,-6.45313 -3.09895,-10.02604 -2.88021,-3.57292 -7.94792,-3.57292 -5.25,0 -8.71354,3.53646 -3.42708,3.5 -4.22917,10.0625 z" />
      <path
         id="path3869"
         style="font-style:normal;font-variant:normal;font-weight:normal;font-stretch:normal;font-size:74.66666412px;font-family:'Yu Gothic UI Light';-inkscape-font-specification:'Yu Gothic UI Light, ';fill:#ffffff;stroke-width:5.36583376"
         d="m 228.65702,163.18997 q -1.67708,-1.20313 -3.9375,-1.20313 -4.41146,0 -7.40104,4.55729 -2.98958,4.5573 -2.98958,12.94271 v 17.53646 h -3.28125 v -37.33333 h 3.28125 v 8.27604 h 0.14583 q 1.27604,-4.26563 4.04688,-6.63542 2.77083,-2.36979 6.41666,-2.36979 2.07813,0 3.71875,0.65625 z" />
      <path
         id="path3871"
         style="font-style:normal;font-variant:normal;font-weight:normal;font-stretch:normal;font-size:74.66666412px;font-family:'Yu Gothic UI Light';-inkscape-font-specification:'Yu Gothic UI Light, ';fill:#ffffff;stroke-width:5.36583376"
         d="m 237.33411,150.28372 q -1.09375,0 -1.93229,-0.80208 -0.83854,-0.80209 -0.83854,-2.04167 0,-1.20313 0.83854,-1.93229 0.875,-0.76563 1.93229,-0.76563 1.13021,0 1.96875,0.72917 0.875,0.72917 0.875,1.96875 0,1.16667 -0.83854,2.00521 -0.83854,0.83854 -2.00521,0.83854 z m -1.64063,46.73958 v -37.33333 h 3.35417 v 37.33333 z" />
      <path
         id="path3873"
         style="font-style:normal;font-variant:normal;font-weight:normal;font-stretch:normal;font-size:74.66666412px;font-family:'Yu Gothic UI Light';-inkscape-font-specification:'Yu Gothic UI Light, ';fill:#ffffff;stroke-width:5.36583376"
         d="m 297.81847,197.0233 v -22.45833 q 0,-7.03646 -2.22395,-9.88021 -2.1875,-2.84375 -6.96355,-2.84375 -4.41145,0 -7.61979,3.79167 -3.20833,3.79166 -3.20833,9.51562 v 21.875 h -3.35417 v -22.71354 q 0,-12.46875 -9.47916,-12.46875 -4.55729,0 -7.58334,3.82812 -3.02604,3.79167 -3.02604,9.84375 v 21.51042 h -3.35416 v -37.33333 h 3.35416 v 6.19791 h 0.14584 q 3.90104,-7.10937 11.41145,-7.10937 4.08334,0 6.96355,2.36979 2.91666,2.33333 3.9375,6.16146 1.75,-4.04688 4.99479,-6.27083 3.28125,-2.26042 7.10937,-2.26042 12.25,0 12.25,15.16667 v 23.07812 z" />
      <path
         id="path3875"
         style="font-style:normal;font-variant:normal;font-weight:normal;font-stretch:normal;font-size:74.66666412px;font-family:'Yu Gothic UI Light';-inkscape-font-specification:'Yu Gothic UI Light, ';fill:#ffffff;stroke-width:5.36583376"
         d="m 327.38619,197.93476 q -8.16667,0 -12.94271,-5.35938 -4.73958,-5.39583 -4.73958,-14 0,-9.29687 4.95833,-14.54687 4.99479,-5.25 13.125,-5.25 7.98437,0 12.61458,5.21354 4.63021,5.21354 4.63021,14.4375 0,8.71354 -4.73958,14.10938 -4.70313,5.39583 -12.90625,5.39583 z m 0.2552,-36.09375 q -6.59895,0 -10.53645,4.44792 -3.90104,4.44791 -3.90104,12.35937 0,7.32813 3.82812,11.77604 3.82813,4.44792 10.46354,4.44792 6.74479,0 10.39063,-4.375 3.64583,-4.375 3.64583,-12.14063 0,-7.98437 -3.64583,-12.25 -3.60938,-4.26562 -10.2448,-4.26562 z" />
      <path
         id="path3877"
         style="font-style:normal;font-variant:normal;font-weight:normal;font-stretch:normal;font-size:74.66666412px;font-family:'Yu Gothic UI Light';-inkscape-font-specification:'Yu Gothic UI Light, ';fill:#ffffff;stroke-width:5.36583376"
         d="m 379.63097,197.0233 v -21.72917 q 0,-13.45312 -9.69792,-13.45312 -5.39583,0 -8.85937,3.97396 -3.46354,3.9375 -3.46354,9.77083 v 21.4375 h -3.35417 v -37.33333 h 3.35417 v 6.78125 h 0.14583 q 4.08333,-7.69271 12.76041,-7.69271 6.05209,0 9.26042,4.04687 3.20833,4.01042 3.20833,11.48438 v 22.71354 z" />
      <path
         id="path3879"
         style="font-style:normal;font-variant:normal;font-weight:normal;font-stretch:normal;font-size:74.66666412px;font-family:'Yu Gothic UI Light';-inkscape-font-specification:'Yu Gothic UI Light, ';fill:#ffffff;stroke-width:5.36583376"
         d="m 395.85492,150.28372 q -1.09375,0 -1.93229,-0.80208 -0.83854,-0.80209 -0.83854,-2.04167 0,-1.20313 0.83854,-1.93229 0.875,-0.76563 1.93229,-0.76563 1.13021,0 1.96875,0.72917 0.875,0.72917 0.875,1.96875 0,1.16667 -0.83854,2.00521 -0.83854,0.83854 -2.00521,0.83854 z m -1.64062,46.73958 v -37.33333 h 3.35416 v 37.33333 z" />
      <path
         id="path3881"
         style="font-style:normal;font-variant:normal;font-weight:normal;font-stretch:normal;font-size:74.66666412px;font-family:'Yu Gothic UI Light';-inkscape-font-specification:'Yu Gothic UI Light, ';fill:#ffffff;stroke-width:5.36583376"
         d="m 431.8393,197.0233 v -7.47396 h -0.14584 q -1.78646,3.82813 -5.21354,6.125 -3.39062,2.26042 -7.54687,2.26042 -5.32292,0 -8.42188,-2.98958 -3.09896,-2.98959 -3.09896,-7.54688 0,-9.77083 12.94271,-11.8125 l 11.48438,-1.71354 q 0,-12.03125 -9.04167,-12.03125 -6.16146,0 -11.99479,4.95833 v -4.04687 q 2.07812,-1.64063 5.61458,-2.80729 3.57292,-1.16667 6.70833,-1.16667 5.76042,0 8.89584,3.57292 3.17187,3.57291 3.17187,10.39062 v 24.28125 z m -10.28125,-18.59375 q -5.8698,0.83854 -8.23959,2.73438 -2.36979,1.85937 -2.36979,6.08854 0,3.31771 2.1875,5.46875 2.22396,2.15104 6.16146,2.15104 5.39583,0 8.96875,-3.97396 3.57292,-4.01042 3.57292,-10.31771 v -3.64583 z" />
    </g>
  </g>
</svg>
