<?xml version="1.0" encoding="utf-8"?>
<!-- Generator: Adobe Illustrator 16.0.0, SVG Export Plug-In . SVG Version: 6.00 Build 0)  -->
<!DOCTYPE svg PUBLIC "-//W3C//DTD SVG 1.0//EN" "http://www.w3.org/TR/2001/REC-SVG-20010904/DTD/svg10.dtd">
<svg version="1.0" xmlns="http://www.w3.org/2000/svg" xmlns:xlink="http://www.w3.org/1999/xlink" x="0px" y="0px"
	 width="1190.55px" height="511.475px" viewBox="0 0 1190.55 511.475" enable-background="new 0 0 1190.55 511.475"
	 xml:space="preserve">
<g id="Layer_1">
	
		<linearGradient id="SVGID_1_" gradientUnits="userSpaceOnUse" x1="-1288.1729" y1="926.4063" x2="2271.6611" y2="926.4063" gradientTransform="matrix(0.5225 0.9609 -1.4203 0.7724 1589.239 -992.9787)">
		<stop  offset="0.4086" style="stop-color:#139C7D"/>
		<stop  offset="0.4187" style="stop-color:#199D7A"/>
		<stop  offset="0.5469" style="stop-color:#3FA655"/>
		<stop  offset="0.6075" style="stop-color:#48AA48"/>
		<stop  offset="0.6343" style="stop-color:#55AC47"/>
		<stop  offset="0.6767" style="stop-color:#70B444"/>
		<stop  offset="0.7295" style="stop-color:#96C03D"/>
		<stop  offset="0.7907" style="stop-color:#C7D32D"/>
		<stop  offset="0.8581" style="stop-color:#FFF000"/>
		<stop  offset="0.8602" style="stop-color:#FFF200"/>
	</linearGradient>
	<polygon fill="url(#SVGID_1_)" stroke="#000000" stroke-miterlimit="10" points="-298.54,2861.791 -2158.609,-558.601 
		1359.351,-2471.729 3219.42,948.664 	"/>
</g>
<g id="Layer_2">
	<g>
		<g>
			<path fill="#FFFFFF" d="M531.15,243.49c0,0.524-0.106,0.967-0.313,1.328c-0.207,0.359-0.58,0.67-1.118,0.932
				c-0.534,0.262-1.236,0.458-2.1,0.59c-0.862,0.13-1.918,0.196-3.167,0.196c-1.374,0-2.49-0.066-3.354-0.196
				c-0.864-0.135-1.549-0.331-2.055-0.59c-0.506-0.262-0.849-0.573-1.027-0.932c-0.179-0.36-0.267-0.803-0.267-1.328v-11.695
				c-4.588,5.57-9.116,9.631-13.581,12.186c-4.468,2.555-8.995,3.833-13.581,3.833c-5.36,0-9.875-0.985-13.535-2.95
				c-3.665-1.964-6.629-4.635-8.891-8.009c-2.265-3.374-3.887-7.304-4.871-11.793c-0.983-4.487-1.474-9.942-1.474-16.363v-53.659
				c0-0.525,0.104-0.967,0.313-1.327c0.209-0.36,0.61-0.688,1.206-0.985c0.594-0.292,1.369-0.489,2.323-0.587
				c0.95-0.098,2.144-0.147,3.574-0.147s2.622,0.05,3.573,0.147c0.955,0.098,1.711,0.295,2.279,0.587
				c0.566,0.297,0.967,0.625,1.206,0.985c0.238,0.36,0.355,0.802,0.355,1.327v51.496c0,5.179,0.343,9.321,1.029,12.434
				c0.683,3.113,1.729,5.767,3.128,7.96c1.398,2.197,3.17,3.897,5.316,5.111c2.143,1.214,4.644,1.817,7.504,1.817
				c3.692,0,7.371-1.439,11.034-4.323c3.663-2.882,7.548-7.109,11.658-12.679v-61.815c0-0.525,0.103-0.967,0.315-1.327
				c0.205-0.36,0.61-0.688,1.204-0.985c0.595-0.292,1.356-0.489,2.279-0.587c0.921-0.098,2.128-0.147,3.616-0.147
				c1.43,0,2.624,0.05,3.577,0.147c0.951,0.098,1.698,0.295,2.233,0.587c0.536,0.297,0.938,0.625,1.206,0.985
				c0.269,0.36,0.402,0.802,0.402,1.327V243.49z"/>
			<path fill="#FFFFFF" d="M623.027,195.433c0,2.554-0.584,4.374-1.749,5.453c-1.168,1.081-2.502,1.624-3.997,1.624h-52.956
				c0,4.911,0.449,9.337,1.347,13.267c0.897,3.928,2.394,7.306,4.489,10.123c2.097,2.815,4.819,4.979,8.169,6.486
				c3.355,1.507,7.453,2.259,12.303,2.259c3.83,0,7.238-0.342,10.234-1.032c2.991-0.687,5.579-1.458,7.764-2.31
				c2.187-0.849,3.981-1.621,5.386-2.308c1.409-0.688,2.472-1.032,3.192-1.032c0.419,0,0.79,0.116,1.119,0.343
				c0.33,0.23,0.581,0.576,0.763,1.033c0.177,0.458,0.313,1.097,0.403,1.915c0.089,0.821,0.138,1.818,0.138,2.999
				c0,0.852-0.035,1.589-0.089,2.21c-0.062,0.623-0.135,1.18-0.224,1.67c-0.089,0.492-0.239,0.933-0.445,1.327
				c-0.213,0.393-0.477,0.771-0.804,1.13c-0.329,0.359-1.3,0.95-2.906,1.767c-1.608,0.822-3.691,1.624-6.251,2.41
				c-2.563,0.786-5.526,1.488-8.891,2.113c-3.365,0.622-6.957,0.934-10.767,0.934c-6.611,0-12.406-1.017-17.379-3.047
				c-4.973-2.029-9.158-5.043-12.552-9.04c-3.396-3.997-5.955-9.011-7.686-15.038c-1.727-6.028-2.59-13.038-2.59-21.03
				c0-7.601,0.896-14.432,2.68-20.492c1.787-6.059,4.363-11.204,7.729-15.429c3.362-4.226,7.428-7.47,12.195-9.731
				c4.761-2.26,10.093-3.388,15.993-3.388c6.312,0,11.688,1.114,16.126,3.341c4.437,2.227,8.086,5.225,10.944,8.991
				c2.857,3.77,4.959,8.191,6.3,13.269c1.337,5.078,2.01,10.5,2.01,16.264V195.433z M608.196,190.616
				c0.177-8.516-1.544-15.2-5.172-20.048c-3.623-4.848-9.005-7.274-16.136-7.274c-3.656,0-6.858,0.756-9.614,2.262
				c-2.757,1.506-5.065,3.503-6.925,5.994c-1.858,2.491-3.295,5.391-4.313,8.699c-1.02,3.309-1.588,6.765-1.711,10.368H608.196
				L608.196,190.616z"/>
			<path fill="#FFFFFF" d="M687.834,160.838c0,1.442-0.029,2.652-0.088,3.636c-0.059,0.981-0.179,1.755-0.356,2.309
				c-0.181,0.557-0.403,0.983-0.67,1.279c-0.268,0.294-0.641,0.442-1.117,0.442s-1.059-0.148-1.741-0.442
				c-0.687-0.296-1.465-0.589-2.325-0.886c-0.866-0.294-1.829-0.572-2.906-0.835c-1.072-0.262-2.229-0.393-3.483-0.393
				c-1.486,0-2.949,0.331-4.376,0.983c-1.433,0.655-2.938,1.736-4.515,3.243c-1.579,1.507-3.232,3.505-4.955,5.994
				c-1.729,2.49-3.638,5.538-5.72,9.141v58.181c0,0.524-0.119,0.967-0.356,1.328c-0.239,0.359-0.627,0.67-1.161,0.932
				c-0.534,0.262-1.283,0.458-2.235,0.59c-0.953,0.13-2.173,0.196-3.665,0.196c-1.427,0-2.625-0.066-3.571-0.196
				c-0.955-0.135-1.714-0.331-2.279-0.59c-0.565-0.262-0.952-0.573-1.159-0.932c-0.211-0.36-0.311-0.803-0.311-1.328v-88.449
				c0-0.525,0.088-0.967,0.265-1.327c0.179-0.36,0.535-0.688,1.067-0.985c0.539-0.292,1.225-0.489,2.058-0.587
				c0.834-0.098,1.936-0.147,3.307-0.147c1.31,0,2.397,0.05,3.261,0.147c0.862,0.098,1.535,0.295,2.013,0.587
				c0.474,0.297,0.816,0.625,1.025,0.985c0.21,0.36,0.314,0.802,0.314,1.327v12.873c2.2-3.538,4.274-6.42,6.206-8.648
				c1.939-2.226,3.769-3.98,5.498-5.258c1.725-1.279,3.44-2.162,5.136-2.653c1.7-0.491,3.411-0.737,5.138-0.737
				c0.773,0,1.653,0.049,2.637,0.146c0.98,0.098,2.01,0.28,3.078,0.54c1.076,0.263,2.046,0.559,2.907,0.884
				c0.864,0.33,1.478,0.657,1.829,0.984c0.36,0.329,0.601,0.639,0.717,0.933c0.119,0.296,0.224,0.674,0.313,1.131
				c0.091,0.458,0.148,1.13,0.181,2.015C687.821,158.137,687.834,159.333,687.834,160.838z"/>
			<path fill="#FFFFFF" d="M717.395,125.162c0,3.803-0.658,6.391-1.965,7.765c-1.313,1.376-3.725,2.064-7.238,2.064
				c-3.456,0-5.821-0.672-7.103-2.015c-1.28-1.343-1.922-3.882-1.922-7.616c0-3.799,0.654-6.39,1.967-7.765
				c1.311-1.376,3.72-2.062,7.235-2.062c3.456,0,5.821,0.671,7.103,2.013C716.754,118.889,717.395,121.427,717.395,125.162z
				 M715.696,243.49c0,0.524-0.121,0.967-0.357,1.328c-0.239,0.359-0.627,0.67-1.161,0.932c-0.537,0.262-1.28,0.458-2.235,0.59
				c-0.954,0.13-2.175,0.196-3.661,0.196c-1.432,0-2.624-0.066-3.576-0.196c-0.956-0.135-1.713-0.331-2.277-0.59
				c-0.568-0.262-0.956-0.573-1.165-0.932c-0.208-0.36-0.311-0.803-0.311-1.328v-88.449c0-0.459,0.103-0.887,0.311-1.278
				c0.209-0.395,0.597-0.721,1.165-0.984c0.564-0.259,1.321-0.458,2.277-0.588c0.952-0.132,2.145-0.197,3.576-0.197
				c1.486,0,2.707,0.066,3.661,0.197c0.955,0.133,1.698,0.329,2.235,0.588c0.534,0.263,0.922,0.591,1.161,0.984
				c0.236,0.392,0.357,0.819,0.357,1.278V243.49z"/>
			<path fill="#FFFFFF" d="M581.538,403.591c0,0.527-0.12,0.971-0.355,1.33c-0.241,0.361-0.623,0.674-1.16,0.934
				c-0.538,0.262-1.283,0.457-2.236,0.59c-0.953,0.129-2.144,0.195-3.573,0.195c-1.49,0-2.713-0.066-3.661-0.195
				c-0.956-0.133-1.712-0.328-2.281-0.59c-0.564-0.26-0.97-0.572-1.203-0.934c-0.242-0.359-0.358-0.803-0.358-1.33v-53.754
				c0-3.736-0.3-7.14-0.894-10.221c-0.599-3.078-1.55-5.734-2.86-7.959c-1.31-2.229-2.976-3.932-5.002-5.112
				c-2.024-1.177-4.407-1.768-7.148-1.768c-3.394,0-6.806,1.442-10.229,4.325c-3.425,2.883-7.191,7.109-11.302,12.676v61.817
				c0,0.525-0.12,0.967-0.356,1.328c-0.24,0.361-0.642,0.672-1.205,0.932c-0.569,0.264-1.328,0.459-2.279,0.59
				c-0.955,0.131-2.145,0.199-3.577,0.199c-1.367,0-2.543-0.068-3.527-0.199c-0.98-0.131-1.757-0.326-2.323-0.59
				c-0.565-0.26-0.954-0.57-1.159-0.932c-0.212-0.361-0.313-0.803-0.313-1.328v-53.757c0-3.734-0.329-7.141-0.982-10.219
				c-0.657-3.079-1.639-5.734-2.948-7.962c-1.314-2.225-2.965-3.93-4.959-5.109c-1.998-1.18-4.364-1.771-7.104-1.771
				c-3.396,0-6.822,1.442-10.275,4.325c-3.455,2.886-7.208,7.11-11.256,12.679v61.814c0,0.525-0.122,0.969-0.36,1.328
				c-0.239,0.361-0.623,0.674-1.159,0.934c-0.536,0.262-1.282,0.457-2.234,0.59c-0.954,0.129-2.174,0.197-3.665,0.197
				c-1.428,0-2.62-0.068-3.573-0.197c-0.954-0.133-1.713-0.328-2.28-0.59c-0.564-0.26-0.951-0.572-1.16-0.934
				c-0.208-0.359-0.311-0.803-0.311-1.328v-88.446c0-0.528,0.087-0.969,0.265-1.331c0.179-0.356,0.538-0.685,1.072-0.979
				c0.534-0.296,1.219-0.491,2.056-0.59c0.833-0.1,1.934-0.147,3.304-0.147c1.312,0,2.398,0.047,3.264,0.147
				c0.862,0.099,1.535,0.294,2.011,0.59c0.476,0.294,0.818,0.623,1.027,0.979c0.209,0.362,0.313,0.803,0.313,1.331v11.695
				c4.526-5.571,8.919-9.646,13.178-12.239c4.259-2.585,8.562-3.88,12.911-3.88c3.335,0,6.33,0.427,8.979,1.279
				c2.651,0.851,4.989,2.045,7.014,3.586c2.022,1.539,3.75,3.373,5.182,5.501c1.43,2.129,2.621,4.508,3.574,7.127
				c2.68-3.209,5.224-5.932,7.639-8.159c2.413-2.227,4.734-4.027,6.967-5.402c2.235-1.377,4.406-2.377,6.523-2.999
				c2.112-0.625,4.245-0.935,6.39-0.935c5.18,0,9.527,1.001,13.043,3c3.513,1.999,6.358,4.664,8.532,8.008
				c2.176,3.342,3.726,7.255,4.648,11.743c0.921,4.49,1.384,9.224,1.384,14.202v55.915H581.538z"/>
		</g>
		<path fill="#FFFFFF" stroke="#FFFFFF" stroke-width="0.7" stroke-miterlimit="10" d="M440.272,176.503
			c0,47.56-32.429,86.119-72.429,86.119c-39.999,0-72.43-38.559-72.43-86.119c0-47.561,32.431-86.119,72.43-86.119
			C407.843,90.384,440.272,128.942,440.272,176.503z M367.843,106.48c-32.521,0-58.888,31.353-58.888,70.024
			c0,38.677,26.366,70.026,58.888,70.026c32.524,0,58.888-31.349,58.888-70.026C426.731,137.829,400.366,106.48,367.843,106.48z"/>
		<path fill="#FFFFFF" stroke="#FFFFFF" stroke-miterlimit="10" d="M339.887,137.229c4.915,0,8.897,6.258,8.897,13.979
			c0,7.717-3.983,13.979-8.897,13.979c-4.911,0-8.894-6.262-8.894-13.979C330.993,143.487,334.976,137.229,339.887,137.229z"/>
		<path fill="#FFFFFF" stroke="#FFFFFF" stroke-miterlimit="10" d="M393.256,137.229c4.913,0,8.896,6.258,8.896,13.979
			c0,7.717-3.983,13.979-8.896,13.979s-8.895-6.262-8.895-13.979C384.361,143.487,388.343,137.229,393.256,137.229z"/>
		<g>
			<linearGradient id="SVGID_2_" gradientUnits="userSpaceOnUse" x1="347.0137" y1="207.811" x2="402.7974" y2="207.811">
				<stop  offset="0.8065" style="stop-color:#FFFFFF"/>
				<stop  offset="1" style="stop-color:#FFFFFF"/>
			</linearGradient>
			<path fill="#FFFFFF" stroke="url(#SVGID_2_)" stroke-width="3" stroke-miterlimit="10" d="M349.311,221.242
				c0,0-0.099-0.254-0.25-0.723c-0.068-0.235-0.164-0.519-0.256-0.865c-0.077-0.354-0.148-0.776-0.208-1.265
				c-0.108-0.964-0.125-2.122,0.042-3.481c0.201-1.334,0.563-2.868,1.239-4.418c0.305-0.803,0.747-1.546,1.173-2.367
				c0.469-0.771,0.988-1.57,1.57-2.328c1.161-1.533,2.548-3.014,4.122-4.333c3.132-2.681,6.955-4.771,10.913-6.197
				c1.983-0.726,4.003-1.268,6.007-1.673c2.006-0.409,4-0.633,5.922-0.748c1.925-0.11,3.788-0.057,5.542,0.063
				c0.878,0.098,1.724,0.156,2.543,0.281c0.818,0.143,1.605,0.253,2.356,0.408c1.504,0.328,2.86,0.688,4.046,1.087
				c1.191,0.38,2.208,0.816,3.037,1.172c0.826,0.367,1.463,0.745,1.894,0.962c0.435,0.233,0.66,0.382,0.66,0.382
				s-0.996,0.431-2.667,1.013c-0.835,0.319-1.84,0.621-2.973,1.008c-1.113,0.351-2.372,0.746-3.743,1.177
				c-2.62,0.798-5.677,1.731-8.954,2.731c-3.18,0.996-6.498,2.007-9.69,3.18c-3.202,1.134-6.281,2.403-9.044,3.753
				c-1.389,0.669-2.699,1.361-3.891,2.099c-1.212,0.718-2.32,1.471-3.298,2.245c-1.018,0.757-1.858,1.563-2.637,2.328
				c-0.743,0.773-1.381,1.543-1.887,2.199c-0.237,0.324-0.462,0.631-0.678,0.907c-0.195,0.292-0.342,0.558-0.473,0.766
				C349.473,221.02,349.311,221.242,349.311,221.242z"/>
		</g>
		<path fill="none" stroke="#010101" stroke-width="8" stroke-miterlimit="10" d="M368.132,223.965"/>
		<g>
			
				<linearGradient id="SVGID_3_" gradientUnits="userSpaceOnUse" x1="604.0791" y1="952.2549" x2="710.8184" y2="952.2549" gradientTransform="matrix(1 0 0 -1 0.105 1308.3848)">
				<stop  offset="0.8065" style="stop-color:#FFFFFF"/>
				<stop  offset="1" style="stop-color:#FFFFFF"/>
			</linearGradient>
			
				<linearGradient id="SVGID_4_" gradientUnits="userSpaceOnUse" x1="603.5791" y1="952.2549" x2="711.3184" y2="952.2549" gradientTransform="matrix(1 0 0 -1 0.105 1308.3848)">
				<stop  offset="0.8065" style="stop-color:#FFFFFF"/>
				<stop  offset="1" style="stop-color:#FFFFFF"/>
			</linearGradient>
			<path fill="url(#SVGID_3_)" stroke="url(#SVGID_4_)" stroke-miterlimit="10" d="M710.924,356.129
				c0,31.583-23.896,57.179-53.37,57.179c-29.47,0-53.369-25.596-53.369-57.179c0-31.578,23.899-57.177,53.369-57.177
				C687.027,298.948,710.924,324.551,710.924,356.129z M657.558,309.635c-23.962,0-43.393,20.816-43.393,46.494
				c0,25.68,19.431,46.491,43.393,46.491c23.959,0,43.391-20.812,43.391-46.491C700.948,330.452,681.517,309.635,657.558,309.635z"
				/>
			
				<linearGradient id="SVGID_5_" gradientUnits="userSpaceOnUse" x1="632.4033" y1="968.166" x2="644.2617" y2="968.166" gradientTransform="matrix(1 0 0 -1 0.105 1308.3848)">
				<stop  offset="0.8065" style="stop-color:#FFFFFF"/>
				<stop  offset="1" style="stop-color:#FFFFFF"/>
			</linearGradient>
			
				<linearGradient id="SVGID_6_" gradientUnits="userSpaceOnUse" x1="631.9033" y1="968.166" x2="644.7617" y2="968.166" gradientTransform="matrix(1 0 0 -1 0.105 1308.3848)">
				<stop  offset="0.8065" style="stop-color:#FFFFFF"/>
				<stop  offset="1" style="stop-color:#FFFFFF"/>
			</linearGradient>
			<path fill="url(#SVGID_5_)" stroke="url(#SVGID_6_)" stroke-miterlimit="10" d="M644.367,340.221
				c0,4.646-2.656,8.413-5.929,8.413c-3.277,0-5.93-3.767-5.93-8.413c0-4.649,2.652-8.417,5.93-8.417
				C641.711,331.806,644.367,335.571,644.367,340.221z"/>
			
				<linearGradient id="SVGID_7_" gradientUnits="userSpaceOnUse" x1="669.6807" y1="968.165" x2="681.5439" y2="968.165" gradientTransform="matrix(1 0 0 -1 0.105 1308.3848)">
				<stop  offset="0.8065" style="stop-color:#FFFFFF"/>
				<stop  offset="1" style="stop-color:#FFFFFF"/>
			</linearGradient>
			
				<linearGradient id="SVGID_8_" gradientUnits="userSpaceOnUse" x1="669.1807" y1="968.165" x2="682.0439" y2="968.165" gradientTransform="matrix(1 0 0 -1 0.105 1308.3848)">
				<stop  offset="0.8065" style="stop-color:#FFFFFF"/>
				<stop  offset="1" style="stop-color:#FFFFFF"/>
			</linearGradient>
			
				<ellipse fill="url(#SVGID_7_)" stroke="url(#SVGID_8_)" stroke-miterlimit="10" cx="675.719" cy="340.22" rx="5.931" ry="8.414"/>
			<g>
				
					<linearGradient id="SVGID_9_" gradientUnits="userSpaceOnUse" x1="628.7129" y1="933.2686" x2="685.2425" y2="933.2686" gradientTransform="matrix(1 0 0 -1 0.105 1308.3848)">
					<stop  offset="0.8065" style="stop-color:#FFFFFF"/>
					<stop  offset="1" style="stop-color:#FFFFFF"/>
				</linearGradient>
				<path fill="url(#SVGID_9_)" d="M679.089,362.987c0,0,0.038,0.072,0.115,0.216c0.069,0.136,0.203,0.354,0.315,0.61
					c0.123,0.263,0.273,0.586,0.45,0.965c0.177,0.396,0.272,0.906,0.376,1.473c0.12,0.602,0.163,1.206,0.205,1.867
					c0.067,0.691,0.014,1.391-0.058,2.174c-0.147,1.564-0.628,3.27-1.437,5.066c-0.421,0.865-0.935,1.755-1.523,2.621
					c-0.585,0.893-1.299,1.658-2.044,2.51c-1.524,1.598-3.374,3-5.393,4.133c-2.026,1.125-4.204,1.959-6.44,2.492
					c-2.243,0.549-4.489,0.748-6.701,0.739c-2.22-0.017-4.345-0.347-6.377-0.834c-2.019-0.511-3.925-1.235-5.646-2.14
					c-1.729-0.891-3.282-1.939-4.651-3.096c-0.664-0.617-1.326-1.148-1.907-1.779c-0.572-0.645-1.132-1.218-1.62-1.854
					c-0.475-0.663-0.939-1.247-1.338-1.882c-0.387-0.649-0.76-1.23-1.061-1.846c-0.631-1.195-1.078-2.344-1.41-3.318
					c-0.336-0.959-0.496-1.867-0.636-2.409c-0.072-0.271-0.099-0.527-0.124-0.681c-0.027-0.156-0.038-0.237-0.038-0.237l0.741-1.3
					c0,0,0.723,0.338,1.998,0.928c0.643,0.275,1.406,0.648,2.313,1.002c0.896,0.375,1.924,0.753,3.035,1.184
					c1.116,0.408,2.34,0.818,3.642,1.205c1.31,0.375,2.697,0.723,4.137,1.053c1.438,0.334,2.939,0.586,4.47,0.781
					c1.531,0.164,3.093,0.304,4.648,0.289c1.554,0.019,3.109-0.016,4.612-0.217c1.508-0.192,2.973-0.473,4.346-0.89
					c1.364-0.437,2.655-0.921,3.821-1.496c1.163-0.599,2.191-1.273,3.083-1.978c0.86-0.734,1.633-1.439,2.229-2.15
					c0.313-0.346,0.583-0.685,0.814-1.018c0.243-0.324,0.457-0.625,0.617-0.906c0.175-0.281,0.329-0.531,0.466-0.75
					c0.131-0.244,0.24-0.453,0.329-0.621c0.179-0.339,0.272-0.516,0.272-0.516L679.089,362.987z"/>
			</g>
		</g>
		
			<linearGradient id="SVGID_10_" gradientUnits="userSpaceOnUse" x1="404.8584" y1="1038.7314" x2="609.5791" y2="1038.7314" gradientTransform="matrix(1 0 0 -1 0.105 1308.3848)">
			<stop  offset="0.8065" style="stop-color:#FFFFFF"/>
			<stop  offset="1" style="stop-color:#FFFFFF"/>
		</linearGradient>
		<path fill="none" stroke="url(#SVGID_10_)" stroke-width="11" stroke-linecap="round" stroke-miterlimit="10" d="M410.463,244.958
			c98.358,96.433,102.344-15.883,193.721,49.391"/>
		<g>
			
				<linearGradient id="SVGID_11_" gradientUnits="userSpaceOnUse" x1="586.6323" y1="1017.4033" x2="616.4502" y2="1017.4033" gradientTransform="matrix(1 0 0 -1 0.105 1308.3848)">
				<stop  offset="0.8065" style="stop-color:#FFFFFF"/>
				<stop  offset="1" style="stop-color:#FFFFFF"/>
			</linearGradient>
			<polygon fill="url(#SVGID_11_)" points="616.556,303.03 601.903,300.407 586.737,296.615 592.814,287.194 599.407,278.934 
				607.984,290.976 			"/>
			
				<linearGradient id="SVGID_12_" gradientUnits="userSpaceOnUse" x1="577.2539" y1="1021.54" x2="629.562" y2="1021.54" gradientTransform="matrix(1 0 0 -1 0.105 1308.3848)">
				<stop  offset="0.8065" style="stop-color:#FFFFFF"/>
				<stop  offset="1" style="stop-color:#FFFFFF"/>
			</linearGradient>
			<path fill="url(#SVGID_12_)" d="M616.556,303.03c-1.329,0.217-2.65,0.388-3.967,0.514c-1.313,0.127-2.622,0.224-3.927,0.292
				c-0.654,0.042-1.304,0.065-1.952,0.083c-0.651,0.016-1.302,0.053-1.946,0.056l-1.945,0.019h-0.968l-0.483-0.004h-0.061h-0.029
				h-0.008c-0.109-0.025,0.236,0.051-0.248-0.056h-0.017l-0.119-0.012l-0.241-0.019c-1.284-0.111-2.563-0.232-3.838-0.386
				c-1.276-0.135-2.546-0.292-3.812-0.476c-1.269-0.169-2.536-0.346-3.792-0.557c-1.257-0.21-2.524-0.388-3.776-0.633l-6.951-1.376
				l3.726-6.782l1.354-2.462c0.456-0.82,0.941-1.618,1.41-2.426c0.943-1.617,1.911-3.217,2.924-4.787l0.146-0.23l0.197-0.25
				c2.187-2.764,4.439-5.47,6.819-8.081l5.247-5.761l3.649,6.006l1.927,3.164l1.845,3.225c1.189,2.179,2.346,4.378,3.421,6.645
				c0.535,1.131,1.066,2.266,1.56,3.427c0.518,1.146,0.981,2.326,1.453,3.505c0.456,1.184,0.897,2.383,1.304,3.604
				C615.863,300.498,616.234,301.745,616.556,303.03z M616.556,303.03c-1.104-0.726-2.161-1.488-3.187-2.271
				c-1.021-0.786-2.005-1.597-2.978-2.419c-0.955-0.831-1.919-1.657-2.833-2.519c-0.935-0.849-1.829-1.722-2.724-2.6
				c-1.783-1.748-3.487-3.566-5.16-5.401l-2.446-2.796l-2.363-2.855l8.898,0.246c-2.017,2.896-4.154,5.694-6.367,8.436l0.344-0.477
				c-1.017,1.566-2.069,3.112-3.158,4.633c-0.544,0.761-1.071,1.531-1.628,2.285l-1.687,2.248l-3.223-8.158
				c1.218,0.373,2.418,0.81,3.629,1.217c1.21,0.404,2.408,0.848,3.609,1.292c1.2,0.436,2.396,0.895,3.584,1.376
				c1.194,0.463,2.387,0.958,3.571,1.465l0.221,0.095l0.109,0.047l0.013,0.004c-0.479-0.102-0.128-0.027-0.233-0.047l0.008,0.003
				l0.029,0.008l0.057,0.021l0.455,0.16l0.904,0.338l1.817,0.689c0.605,0.227,1.206,0.485,1.81,0.728
				c0.601,0.243,1.202,0.492,1.802,0.758c1.2,0.51,2.396,1.057,3.582,1.63C614.201,301.74,615.384,302.362,616.556,303.03z"/>
		</g>
		<g>
			<rect x="719.311" y="282.085" fill="none" width="376.117" height="249.05"/>
			<path fill="#FFFFFF" d="M802.224,403.687c0,0.523-0.123,0.969-0.359,1.326c-0.24,0.359-0.628,0.672-1.162,0.934
				c-0.532,0.26-1.28,0.457-2.232,0.592c-0.955,0.129-2.146,0.195-3.574,0.195c-1.49,0-2.713-0.066-3.665-0.195
				c-0.951-0.135-1.695-0.332-2.231-0.592c-0.539-0.262-0.927-0.574-1.161-0.934c-0.241-0.357-0.361-0.803-0.361-1.326v-51.794
				c0-5.042-0.354-9.104-1.068-12.187c-0.715-3.077-1.76-5.73-3.13-7.959c-1.37-2.226-3.141-3.932-5.314-5.111
				c-2.176-1.178-4.688-1.767-7.549-1.767c-3.694,0-7.387,1.441-11.078,4.325c-3.694,2.884-7.565,7.11-11.615,12.676v61.819
				c0,0.525-0.122,0.967-0.359,1.326s-0.625,0.67-1.16,0.932c-0.537,0.262-1.279,0.459-2.232,0.592
				c-0.956,0.129-2.179,0.197-3.665,0.197c-1.428,0-2.623-0.068-3.571-0.197c-0.955-0.133-1.716-0.33-2.28-0.592
				c-0.567-0.262-0.952-0.572-1.161-0.932c-0.211-0.359-0.314-0.801-0.314-1.326v-88.453c0-0.521,0.088-0.964,0.27-1.325
				c0.175-0.359,0.535-0.687,1.071-0.983c0.538-0.293,1.22-0.489,2.055-0.587c0.834-0.102,1.936-0.15,3.306-0.15
				c1.311,0,2.396,0.049,3.264,0.15c0.863,0.098,1.53,0.292,2.007,0.587c0.476,0.297,0.822,0.625,1.031,0.983
				c0.205,0.361,0.312,0.803,0.312,1.325v11.696c4.527-5.567,9.034-9.646,13.534-12.234c4.497-2.589,9.038-3.882,13.627-3.882
				c5.359,0,9.87,0.999,13.538,2.997c3.661,2,6.623,4.669,8.887,8.012c2.264,3.341,3.887,7.254,4.869,11.742
				c0.984,4.49,1.477,9.879,1.477,16.167V403.687L802.224,403.687z"/>
			<path fill="#FFFFFF" d="M840.358,285.357c0,3.801-0.653,6.39-1.966,7.764c-1.312,1.378-3.722,2.067-7.237,2.067
				c-3.451,0-5.821-0.67-7.102-2.016c-1.282-1.342-1.918-3.883-1.918-7.616c0-3.798,0.651-6.39,1.961-7.763
				c1.313-1.378,3.724-2.066,7.237-2.066c3.451,0,5.822,0.673,7.104,2.018C839.718,279.086,840.358,281.624,840.358,285.357z
				 M838.663,403.687c0,0.523-0.124,0.969-0.363,1.326c-0.237,0.359-0.622,0.672-1.156,0.934c-0.538,0.26-1.286,0.457-2.238,0.592
				c-0.951,0.129-2.174,0.195-3.664,0.195c-1.426,0-2.62-0.066-3.571-0.195c-0.955-0.135-1.709-0.332-2.278-0.592
				c-0.568-0.262-0.954-0.574-1.16-0.934c-0.212-0.357-0.315-0.803-0.315-1.326v-88.451c0-0.458,0.104-0.885,0.315-1.277
				c0.206-0.394,0.592-0.721,1.16-0.982c0.566-0.262,1.323-0.457,2.278-0.589c0.951-0.131,2.146-0.197,3.571-0.197
				c1.49,0,2.713,0.066,3.664,0.197c0.952,0.132,1.7,0.328,2.238,0.589c0.534,0.261,0.919,0.588,1.156,0.982
				c0.239,0.392,0.363,0.823,0.363,1.277V403.687z"/>
			<path fill="#FFFFFF" d="M921.436,403.786c0,0.785-0.24,1.375-0.714,1.768c-0.477,0.393-1.133,0.688-1.965,0.885
				c-0.836,0.195-2.055,0.295-3.665,0.295c-1.552,0-2.783-0.1-3.709-0.295c-0.925-0.197-1.596-0.492-2.01-0.885
				c-0.417-0.393-0.623-0.982-0.623-1.768v-8.846c-3.518,4.127-7.432,7.336-11.754,9.631c-4.315,2.291-8.887,3.438-13.713,3.438
				c-4.231,0-8.058-0.604-11.481-1.816c-3.426-1.213-6.345-2.963-8.755-5.26c-2.41-2.289-4.287-5.109-5.631-8.451
				c-1.335-3.34-2.006-7.139-2.006-11.4c0-4.977,0.921-9.301,2.77-12.971c1.843-3.67,4.493-6.719,7.953-9.139
				c3.451-2.424,7.681-4.243,12.685-5.456c5.003-1.211,10.631-1.819,16.888-1.819h11.074v-6.877c0-3.407-0.324-6.421-0.98-9.041
				c-0.654-2.62-1.714-4.797-3.174-6.536c-1.457-1.736-3.353-3.047-5.67-3.932c-2.322-0.887-5.186-1.326-8.579-1.326
				c-3.63,0-6.894,0.475-9.783,1.425c-2.889,0.951-5.42,1.998-7.594,3.144c-2.175,1.146-3.989,2.197-5.448,3.145
				c-1.46,0.95-2.548,1.423-3.262,1.423c-0.479,0-0.893-0.128-1.249-0.392c-0.359-0.262-0.671-0.652-0.942-1.177
				c-0.263-0.526-0.46-1.196-0.578-2.019c-0.122-0.816-0.179-1.717-0.179-2.701c0-1.637,0.104-2.93,0.313-3.884
				c0.208-0.948,0.716-1.848,1.521-2.699c0.801-0.853,2.188-1.851,4.15-3c1.967-1.144,4.229-2.193,6.792-3.145
				c2.562-0.948,5.357-1.734,8.4-2.358c3.035-0.625,6.103-0.932,9.199-0.932c5.776,0,10.695,0.722,14.742,2.161
				c4.052,1.441,7.325,3.555,9.829,6.339c2.5,2.786,4.315,6.241,5.448,10.368c1.13,4.127,1.694,8.944,1.694,14.447v59.656H921.436z
				 M906.784,363.394h-12.596c-4.056,0-7.565,0.377-10.545,1.129c-2.98,0.755-5.452,1.867-7.419,3.342
				c-1.961,1.476-3.407,3.242-4.332,5.31c-0.925,2.063-1.383,4.439-1.383,7.121c0,4.59,1.32,8.243,3.976,10.96
				c2.65,2.721,6.359,4.078,11.123,4.078c3.87,0,7.46-1.082,10.764-3.242c3.31-2.162,6.778-5.471,10.412-9.926V363.394
				L906.784,363.394z"/>
		</g>
		
			<line fill="none" stroke="#FFFFFF" stroke-width="12" stroke-linecap="round" stroke-miterlimit="10" x1="402.336" y1="246.666" x2="429.919" y2="262.622"/>
	</g>
	<g>
	</g>
	<g>
	</g>
	<path opacity="0.4" fill="#FFFFFF" stroke="#FFFFFF" stroke-miterlimit="10" d="M133.694,312.156
		c14.874-2.838,25.808-12.184,25.808-23.31v-80.803c0-11.125-10.934-20.476-25.808-23.313V312.156z"/>
	<path opacity="0.2" fill="#FFFFFF" stroke="#FFFFFF" stroke-miterlimit="10" d="M-56.873,479.987h246.688
		c3.038,0,6.002-0.197,8.871-0.562l-60.909-74.636l60.909-74.634c-2.869-0.361-5.833-0.558-8.871-0.558H-56.873V479.987z"/>
	
		<rect x="-56.24" y="183.824" opacity="0.4" fill="#FFFFFF" stroke="#FFFFFF" stroke-miterlimit="10" width="161.516" height="129.239"/>
	<path opacity="0.6" fill="#FFFFFF" stroke="#FFFFFF" stroke-miterlimit="10" d="M-56.205,167.288H62.599
		c16.792,0,30.409-10.841,30.409-24.216V62.26c0-13.374-13.617-24.219-30.409-24.219H-56.205V167.288z"/>
	<g>
	</g>
	<g>
	</g>
	<path opacity="0.4" fill="#FFFFFF" stroke="#FFFFFF" stroke-miterlimit="10" d="M1071.991,204.181
		c-14.874,2.838-25.808,12.184-25.808,23.31v80.804c0,11.125,10.934,20.476,25.808,23.313V204.181z"/>
	<path opacity="0.2" fill="#FFFFFF" stroke="#FFFFFF" stroke-miterlimit="10" d="M1254.558,36.35l-246.688,0
		c-3.037,0-6.002,0.197-8.87,0.562l60.909,74.636L999,186.181c2.868,0.361,5.833,0.558,8.87,0.558l246.688,0V36.35z"/>
	
		<rect x="1100.41" y="203.275" opacity="0.4" fill="#FFFFFF" stroke="#FFFFFF" stroke-miterlimit="10" width="156.67" height="129.239"/>
	<path opacity="0.6" fill="#FFFFFF" stroke="#FFFFFF" stroke-miterlimit="10" d="M1258.046,349.05h-114.947
		c-16.247,0-29.421,10.841-29.421,24.216v80.812c0,13.373,13.174,24.219,29.421,24.219h114.947V349.05z"/>
	<g>
	</g>
	<g>
	</g>
	<g>
	</g>
	<g>
	</g>
	<g>
	</g>
	<g>
	</g>
	<g>
	</g>
</g>
</svg>
