<?xml version="1.0" encoding="utf-8"?>
<!-- Generator: Adobe Illustrator 16.0.0, SVG Export Plug-In . SVG Version: 6.00 Build 0)  -->
<!DOCTYPE svg PUBLIC "-//W3C//DTD SVG 1.0//EN" "http://www.w3.org/TR/2001/REC-SVG-20010904/DTD/svg10.dtd">
<svg version="1.0" xmlns="http://www.w3.org/2000/svg" xmlns:xlink="http://www.w3.org/1999/xlink" x="0px" y="0px"
	 width="964.452px" height="421.479px" viewBox="0 0 964.452 421.479" enable-background="new 0 0 964.452 421.479"
	 xml:space="preserve">
<g id="Layer_1">
	<g>
		<polygon fill="#4BB749" stroke="#1F977A" stroke-linecap="round" stroke-linejoin="round" stroke-miterlimit="10" points="
			1269.147,-618.066 -981.735,187.562 -939.733,265.862 1265.913,-586.96 		"/>
		<polygon opacity="0.9935" fill="#4BB649" points="1260.792,-629.394 -981.874,182.445 -923.211,276.671 1274.705,-581.853 		"/>
		<polygon opacity="0.9871" fill="#4AB649" points="1250.821,-640.721 -983.628,177.327 -908.308,287.482 1281.878,-576.745 		"/>
		<polygon opacity="0.9806" fill="#4AB54A" points="1240.851,-652.047 -985.384,172.21 -893.404,298.292 1289.053,-571.637 		"/>
		<polygon opacity="0.9742" fill="#4AB54A" points="1230.88,-663.374 -987.139,167.094 -878.5,309.103 1296.227,-566.53 		"/>
		<polygon opacity="0.9677" fill="#4AB44B" points="1220.908,-674.7 -988.894,161.978 -863.597,319.912 1303.4,-561.422 		"/>
		<polygon opacity="0.9613" fill="#49B44B" points="1210.937,-686.027 -990.649,156.859 -848.693,330.722 1310.575,-556.314 		"/>
		<polygon opacity="0.9548" fill="#49B34B" points="1200.966,-697.354 -992.405,151.743 -833.79,341.533 1317.749,-551.207 		"/>
		<polygon opacity="0.9484" fill="#49B34C" points="1190.995,-708.68 -994.16,146.626 -818.887,352.341 1324.924,-546.099 		"/>
		<polygon opacity="0.9419" fill="#49B24C" points="1181.024,-720.007 -995.915,141.51 -803.982,363.152 1332.097,-540.992 		"/>
		<polygon opacity="0.9355" fill="#48B24D" points="1171.053,-731.333 -997.67,136.393 -789.08,373.96 1339.271,-535.884 		"/>
		<polygon opacity="0.929" fill="#48B24D" points="1161.081,-742.66 -999.426,131.276 -774.176,384.771 1346.445,-530.776 		"/>
		<polygon opacity="0.9226" fill="#47B14E" points="1151.11,-753.986 -1001.181,126.158 -759.272,395.582 1353.619,-525.669 		"/>
		<polygon opacity="0.9161" fill="#47B14F" points="1141.14,-765.313 -1002.936,121.043 -744.368,406.393 1360.794,-520.561 		"/>
		<polygon opacity="0.9097" fill="#47B04F" points="1131.168,-776.639 -1004.691,115.926 -729.465,417.201 1367.968,-515.453 		"/>
		<polygon opacity="0.9032" fill="#46B050" points="1121.197,-787.966 -1006.447,110.809 -714.562,428.012 1375.142,-510.346 		"/>
		<polygon opacity="0.8968" fill="#46B050" points="1111.226,-799.292 -1008.202,105.692 -699.658,438.822 1382.315,-505.238 		"/>
		<polygon opacity="0.8903" fill="#46AF51" points="1101.255,-810.619 -1009.957,100.574 -684.755,449.631 1389.49,-500.131 		"/>
		<polygon opacity="0.8839" fill="#45AF51" points="1091.283,-821.945 -1011.713,95.458 -669.851,460.441 1396.664,-495.022 		"/>
		<polygon opacity="0.8774" fill="#45AF52" points="1081.313,-833.272 -1013.468,90.342 -654.947,471.25 1403.838,-489.915 		"/>
		<polygon opacity="0.871" fill="#44AE53" points="1071.342,-844.599 -1015.223,85.225 -640.043,482.061 1411.012,-484.807 		"/>
		<polygon opacity="0.8645" fill="#44AE53" points="1061.37,-855.925 -1016.978,80.107 -625.14,492.871 1418.187,-479.7 		"/>
		<polygon opacity="0.8581" fill="#43AD54" points="1051.399,-867.252 -1018.733,74.991 -610.237,503.682 1425.36,-474.592 		"/>
		<polygon opacity="0.8516" fill="#43AD54" points="1041.429,-878.579 -1020.489,69.874 -595.333,514.49 1432.534,-469.485 		"/>
		<polygon opacity="0.8452" fill="#43AD55" points="1031.457,-889.905 -1022.244,64.757 -580.429,525.301 1439.709,-464.377 		"/>
		<polygon opacity="0.8387" fill="#42AC55" points="1021.486,-901.231 -1023.999,59.641 -565.525,536.111 1446.883,-459.269 		"/>
		<polygon opacity="0.8323" fill="#42AC56" points="1011.515,-912.558 -1025.754,54.522 -550.622,546.92 1454.057,-454.162 		"/>
		<polygon opacity="0.8258" fill="#41AC57" points="1001.544,-923.885 -1027.51,49.406 -535.719,557.73 1461.23,-449.054 		"/>
		<polygon opacity="0.8194" fill="#41AB57" points="991.573,-935.211 -1029.265,44.29 -520.815,568.539 1468.405,-443.946 		"/>
		<polygon opacity="0.8129" fill="#40AB58" points="981.602,-946.537 -1031.02,39.173 -505.912,579.35 1475.579,-438.839 		"/>
		<polygon opacity="0.8065" fill="#40AB58" points="971.631,-957.864 -1032.775,34.056 -491.008,590.16 1482.753,-433.731 		"/>
		<polygon opacity="0.8" fill="#40AA59" points="961.659,-969.191 -1034.531,28.939 -476.104,600.971 1489.927,-428.624 		"/>
		<polygon opacity="0.7935" fill="#3FAA59" points="951.688,-980.518 -1036.286,23.822 -461.201,611.779 1497.101,-423.517 		"/>
		<polygon opacity="0.7871" fill="#3FAA5A" points="941.718,-991.844 -1038.041,18.706 -446.297,622.59 1504.275,-418.409 		"/>
		<polygon opacity="0.7806" fill="#3EA95A" points="931.746,-1003.17 -1039.796,13.589 -431.394,633.4 1511.449,-413.3 		"/>
		<polygon opacity="0.7742" fill="#3EA95B" points="921.775,-1014.497 -1041.551,8.472 -416.49,644.209 1518.623,-408.193 		"/>
		<polygon opacity="0.7677" fill="#3DA95C" points="911.804,-1025.824 -1043.307,3.355 -401.586,655.02 1525.798,-403.085 		"/>
		<polygon opacity="0.7613" fill="#3DA85C" points="901.833,-1037.15 -1045.062,-1.762 -386.683,665.83 1532.972,-397.979 		"/>
		<polygon opacity="0.7548" fill="#3CA85D" points="891.861,-1048.477 -1046.817,-6.878 -371.78,676.639 1540.146,-392.87 		"/>
		<polygon opacity="0.7484" fill="#3CA85D" points="881.891,-1059.803 -1048.572,-11.995 -356.876,687.449 1547.319,-387.762 		"/>
		<polygon opacity="0.7419" fill="#3BA75E" points="871.92,-1071.129 -1050.327,-17.112 -341.972,698.258 1554.493,-382.655 		"/>
		<polygon opacity="0.7355" fill="#3BA75E" points="861.948,-1082.456 -1052.083,-22.229 -327.069,709.068 1561.667,-377.547 		"/>
		<polygon opacity="0.729" fill="#3BA75F" points="851.979,-1093.783 -1053.838,-27.345 -312.165,719.879 1568.842,-372.44 		"/>
		<polygon opacity="0.7226" fill="#3AA760" points="842.007,-1105.109 -1055.593,-32.462 -297.262,730.689 1576.017,-367.332 		"/>
		<polygon opacity="0.7161" fill="#3AA660" points="832.035,-1116.436 -1057.348,-37.578 -282.358,741.498 1583.189,-362.224 		"/>
		<polygon opacity="0.7097" fill="#39A661" points="822.064,-1127.763 -1059.104,-42.696 -267.455,752.309 1590.364,-357.117 		"/>
		<polygon opacity="0.7032" fill="#39A661" points="812.092,-1139.089 -1060.859,-47.813 -252.551,763.119 1597.538,-352.01 		"/>
		<polygon opacity="0.6968" fill="#38A562" points="802.122,-1150.415 -1062.614,-52.929 -237.647,773.928 1604.712,-346.901 		"/>
		<polygon opacity="0.6903" fill="#38A563" points="792.151,-1161.742 -1064.37,-58.047 -222.744,784.738 1611.887,-341.794 		"/>
		<polygon opacity="0.6839" fill="#37A563" points="782.181,-1173.069 -1066.125,-63.164 -207.84,795.549 1619.061,-336.687 		"/>
		<polygon opacity="0.6774" fill="#37A464" points="772.208,-1184.396 -1067.88,-68.28 -192.936,806.357 1626.235,-331.579 		"/>
		<polygon opacity="0.671" fill="#36A464" points="762.237,-1195.722 -1069.635,-73.396 -178.033,817.168 1633.409,-326.471 		"/>
		<polygon opacity="0.6645" fill="#36A465" points="752.268,-1207.048 -1071.391,-78.514 -163.13,827.979 1640.583,-321.364 		"/>
		<polygon opacity="0.6581" fill="#35A366" points="742.295,-1218.375 -1073.146,-83.631 -148.226,838.787 1647.757,-316.256 		"/>
		<polygon opacity="0.6516" fill="#35A366" points="732.324,-1229.701 -1074.901,-88.747 -133.322,849.598 1654.931,-311.148 		"/>
		<polygon opacity="0.6452" fill="#35A367" points="722.354,-1241.028 -1076.656,-93.864 -118.418,860.408 1662.104,-306.041 		"/>
		<polygon opacity="0.6387" fill="#34A267" points="712.381,-1252.354 -1078.412,-98.981 -103.515,871.217 1669.279,-300.933 		"/>
		<polygon opacity="0.6323" fill="#33A268" points="702.411,-1263.681 -1080.167,-104.097 -88.611,882.027 1676.453,-295.825 		"/>
		<polygon opacity="0.6258" fill="#33A268" points="692.44,-1275.007 -1081.922,-109.214 -73.709,892.836 1683.628,-290.718 		"/>
		<polygon opacity="0.6194" fill="#32A169" points="682.469,-1286.334 -1083.677,-114.332 -58.804,903.646 1690.802,-285.61 		"/>
		<polygon opacity="0.6129" fill="#32A16A" points="672.497,-1297.661 -1085.433,-119.448 -43.901,914.457 1697.976,-280.502 		"/>
		<polygon opacity="0.6065" fill="#31A16A" points="662.526,-1308.987 -1087.188,-124.565 -28.998,925.268 1705.149,-275.395 		"/>
		<polygon opacity="0.6" fill="#31A16B" points="652.556,-1320.313 -1088.942,-129.682 -14.094,936.076 1712.323,-270.287 		"/>
		<polygon opacity="0.5935" fill="#30A06B" points="642.584,-1331.64 -1090.698,-134.798 0.809,946.887 1719.498,-265.179 		"/>
		<polygon opacity="0.5871" fill="#30A06C" points="632.613,-1342.967 -1092.454,-139.916 15.713,957.697 1726.672,-260.072 		"/>
		<polygon opacity="0.5806" fill="#2FA06C" points="622.643,-1354.294 -1094.208,-145.032 30.617,968.506 1733.847,-254.965 		"/>
		<polygon opacity="0.5742" fill="#2F9F6D" points="612.67,-1365.62 -1095.963,-150.149 45.52,979.316 1741.02,-249.857 		"/>
		<polygon opacity="0.5677" fill="#2E9F6E" points="602.7,-1376.947 -1097.719,-155.266 60.424,990.127 1748.194,-244.749 		"/>
		<polygon opacity="0.5613" fill="#2E9F6E" points="592.729,-1388.273 -1099.474,-160.383 75.327,1000.936 1755.368,-239.642 		"/>
		<polygon opacity="0.5548" fill="#2D9E6F" points="582.758,-1399.6 -1101.229,-165.5 90.23,1011.746 1762.542,-234.534 		"/>
		<polygon opacity="0.5484" fill="#2D9E6F" points="572.787,-1410.927 -1102.985,-170.617 105.135,1022.557 1769.716,-229.427 		"/>
		<polygon opacity="0.5419" fill="#2C9E70" points="562.816,-1422.252 -1104.74,-175.733 120.038,1033.365 1776.891,-224.318 		"/>
		<polygon opacity="0.5355" fill="#2C9E70" points="552.845,-1433.579 -1106.495,-180.85 134.941,1044.176 1784.064,-219.21 		"/>
		<polygon opacity="0.529" fill="#2B9D71" points="542.873,-1444.906 -1108.25,-185.967 149.845,1054.984 1791.239,-214.103 		"/>
		<polygon opacity="0.5226" fill="#2B9D71" points="532.902,-1456.232 -1110.005,-191.083 164.748,1065.795 1798.413,-208.996 		"/>
		<polygon opacity="0.5161" fill="#2A9D72" points="522.932,-1467.559 -1111.761,-196.201 179.653,1076.605 1805.587,-203.889 		"/>
		<polygon opacity="0.5097" fill="#2A9C72" points="512.961,-1478.885 -1113.516,-201.317 194.557,1087.414 1812.761,-198.78 		"/>
		<polygon opacity="0.5032" fill="#299C73" points="502.989,-1490.212 -1115.271,-206.434 209.46,1098.225 1819.935,-193.673 		"/>
		<polygon opacity="0.4968" fill="#289C73" points="493.018,-1501.539 -1117.026,-211.551 224.362,1109.035 1827.108,-188.565 		"/>
		<polygon opacity="0.4903" fill="#289B74" points="483.047,-1512.866 -1118.782,-216.668 239.266,1119.846 1834.283,-183.458 		"/>
		<polygon opacity="0.4839" fill="#279B74" points="473.076,-1524.192 -1120.537,-221.785 254.171,1130.654 1841.457,-178.35 		"/>
		<polygon opacity="0.4774" fill="#279B75" points="463.105,-1535.518 -1122.292,-226.901 269.074,1141.465 1848.631,-173.242 		"/>
		<polygon opacity="0.471" fill="#269B75" points="453.135,-1546.845 -1124.047,-232.018 283.979,1152.273 1855.806,-168.135 		"/>
		<polygon opacity="0.4645" fill="#269A76" points="443.162,-1558.171 -1125.803,-237.134 298.881,1163.084 1862.979,-163.026 		"/>
		<polygon opacity="0.4581" fill="#259A76" points="433.192,-1569.498 -1127.558,-242.252 313.784,1173.895 1870.153,-157.92 		"/>
		<polygon opacity="0.4516" fill="#249A77" points="423.221,-1580.824 -1129.313,-247.369 328.688,1184.703 1877.327,-152.812 		"/>
		<polygon opacity="0.4452" fill="#249977" points="413.249,-1592.151 -1131.068,-252.485 343.592,1195.514 1884.502,-147.705 		"/>
		<polygon opacity="0.4387" fill="#239978" points="403.278,-1603.478 -1132.824,-257.603 358.495,1206.324 1891.676,-142.597 		"/>
		<polygon opacity="0.4323" fill="#229978" points="393.308,-1614.804 -1134.578,-262.719 373.399,1217.135 1898.85,-137.489 		"/>
		<polygon opacity="0.4258" fill="#229979" points="383.337,-1626.131 -1136.334,-267.836 388.303,1227.943 1906.024,-132.381 		"/>
		<polygon opacity="0.4194" fill="#219879" points="373.365,-1637.457 -1138.089,-272.952 403.206,1238.754 1913.198,-127.274 		"/>
		<polygon opacity="0.4129" fill="#20987A" points="363.358,-1648.783 -1139.88,-278.069 418.073,1249.564 1920.336,-122.166 		"/>
		<polygon opacity="0.4065" fill="#20987A" points="353.403,-1660.11 -1141.619,-283.185 432.994,1260.375 1927.527,-117.058 		"/>
		<polygon opacity="0.4" fill="#1F977A" points="1934.719,-111.95 343.45,-1671.436 -1143.356,-288.302 447.915,1271.184 		"/>
		<polygon opacity="0.4065" fill="#20987A" stroke="#4BB749" stroke-width="0.0108" stroke-miterlimit="10" points="
			355.851,-1646.357 -1129.914,-269.838 447.297,1273.559 1931.284,-104.729 		"/>
		<polygon opacity="0.4129" fill="#20987A" stroke="#4BB749" stroke-width="0.0215" stroke-miterlimit="10" points="
			368.248,-1621.278 -1116.474,-251.374 446.678,1275.936 1927.848,-97.507 		"/>
		<polygon opacity="0.4194" fill="#219879" stroke="#4BB749" stroke-width="0.0323" stroke-miterlimit="10" points="
			380.646,-1596.199 -1103.033,-232.909 446.059,1278.313 1924.412,-90.284 		"/>
		<polygon opacity="0.4258" fill="#229979" stroke="#4BB749" stroke-width="0.043" stroke-miterlimit="10" points="
			393.045,-1571.12 -1089.593,-214.444 445.439,1280.689 1920.978,-83.062 		"/>
		<polygon opacity="0.4323" fill="#229978" stroke="#4BB749" stroke-width="0.0538" stroke-miterlimit="10" points="
			405.443,-1546.042 -1076.152,-195.979 444.82,1283.068 1917.542,-75.84 		"/>
		<polygon opacity="0.4387" fill="#239978" stroke="#4BB749" stroke-width="0.0645" stroke-miterlimit="10" points="
			417.841,-1520.962 -1062.712,-177.515 444.202,1285.445 1914.105,-68.617 		"/>
		<polygon opacity="0.4452" fill="#249977" stroke="#4BB749" stroke-width="0.0753" stroke-miterlimit="10" points="
			430.239,-1495.883 -1049.272,-159.05 443.583,1287.82 1910.671,-61.395 		"/>
		<polygon opacity="0.4516" fill="#249A77" stroke="#4BB749" stroke-width="0.086" stroke-miterlimit="10" points="
			442.638,-1470.804 -1035.832,-140.585 442.964,1290.197 1907.235,-54.172 		"/>
		<polygon opacity="0.4581" fill="#259A76" stroke="#4BB749" stroke-width="0.0968" stroke-miterlimit="10" points="
			455.035,-1445.725 -1022.391,-122.121 442.344,1292.576 1903.799,-46.95 		"/>
		<polygon opacity="0.4645" fill="#269A76" stroke="#4BB749" stroke-width="0.1075" stroke-miterlimit="10" points="
			467.434,-1420.646 -1008.95,-103.655 441.725,1294.953 1900.363,-39.727 		"/>
		<polygon opacity="0.471" fill="#269B75" stroke="#4BB749" stroke-width="0.1183" stroke-miterlimit="10" points="
			479.832,-1395.566 -995.51,-85.19 441.105,1297.33 1896.928,-32.505 		"/>
		<polygon opacity="0.4774" fill="#279B75" stroke="#4BB749" stroke-width="0.129" stroke-miterlimit="10" points="
			492.23,-1370.487 -982.069,-66.727 440.486,1299.707 1893.492,-25.283 		"/>
		<polygon opacity="0.4839" fill="#279B74" stroke="#4BB749" stroke-width="0.1398" stroke-miterlimit="10" points="
			504.628,-1345.408 -968.629,-48.261 439.867,1302.084 1890.058,-18.06 		"/>
		<polygon opacity="0.4903" fill="#289B74" stroke="#4BB749" stroke-width="0.1505" stroke-miterlimit="10" points="
			517.026,-1320.329 -955.188,-29.796 439.249,1304.461 1886.621,-10.838 		"/>
		<polygon opacity="0.4968" fill="#289C73" stroke="#4BB749" stroke-width="0.1613" stroke-miterlimit="10" points="
			529.425,-1295.25 -941.748,-11.332 438.63,1306.838 1883.185,-3.615 		"/>
		<polygon opacity="0.5032" fill="#299C73" stroke="#4BB749" stroke-width="0.172" stroke-miterlimit="10" points="
			541.823,-1270.171 -928.308,7.133 438.011,1309.215 1879.75,3.607 		"/>
		<polygon opacity="0.5097" fill="#2A9C72" stroke="#4BB749" stroke-width="0.1828" stroke-miterlimit="10" points="
			554.222,-1245.092 -914.867,25.598 437.392,1311.592 1876.314,10.83 		"/>
		<polygon opacity="0.5161" fill="#2A9D72" stroke="#4BB749" stroke-width="0.1935" stroke-miterlimit="10" points="
			566.62,-1220.013 -901.427,44.062 436.772,1313.969 1872.879,18.052 		"/>
		<polygon opacity="0.5226" fill="#2B9D71" stroke="#4BB749" stroke-width="0.2043" stroke-miterlimit="10" points="
			579.019,-1194.934 -887.987,62.527 436.153,1316.346 1869.443,25.274 		"/>
		<polygon opacity="0.529" fill="#2B9D71" stroke="#4BB749" stroke-width="0.2151" stroke-miterlimit="10" points="
			591.416,-1169.854 -874.546,80.992 435.534,1318.723 1866.007,32.497 		"/>
		<polygon opacity="0.5355" fill="#2C9E70" stroke="#4BB749" stroke-width="0.2258" stroke-miterlimit="10" points="
			603.814,-1144.775 -861.106,99.457 434.915,1321.1 1862.571,39.719 		"/>
		<polygon opacity="0.5419" fill="#2C9E70" stroke="#4BB749" stroke-width="0.2366" stroke-miterlimit="10" points="
			616.213,-1119.696 -847.665,117.922 434.296,1323.477 1859.136,46.941 		"/>
		<polygon opacity="0.5484" fill="#2D9E6F" stroke="#4BB749" stroke-width="0.2473" stroke-miterlimit="10" points="
			628.61,-1094.617 -834.225,136.387 433.677,1325.854 1855.7,54.164 		"/>
		<polygon opacity="0.5548" fill="#2D9E6F" stroke="#4BB749" stroke-width="0.2581" stroke-miterlimit="10" points="
			641.01,-1069.538 -820.784,154.852 433.058,1328.23 1852.265,61.387 		"/>
		<polygon opacity="0.5613" fill="#2E9F6E" stroke="#4BB749" stroke-width="0.2688" stroke-miterlimit="10" points="
			653.407,-1044.459 -807.344,173.316 432.438,1330.607 1848.829,68.609 		"/>
		<polygon opacity="0.5677" fill="#2E9F6E" stroke="#4BB749" stroke-width="0.2796" stroke-miterlimit="10" points="
			665.806,-1019.38 -793.903,191.781 431.82,1332.984 1845.394,75.832 		"/>
		<polygon opacity="0.5742" fill="#2F9F6D" stroke="#4BB749" stroke-width="0.2903" stroke-miterlimit="10" points="
			678.203,-994.302 -780.463,210.244 431.2,1335.361 1841.958,83.054 		"/>
		<polygon opacity="0.5806" fill="#2FA06C" stroke="#4BB749" stroke-width="0.3011" stroke-miterlimit="10" points="
			690.602,-969.223 -767.022,228.71 430.582,1337.738 1838.522,90.276 		"/>
		<polygon opacity="0.5871" fill="#30A06C" stroke="#4BB749" stroke-width="0.3118" stroke-miterlimit="10" points="703,-944.143 
			-753.582,247.174 429.963,1340.115 1835.087,97.498 		"/>
		<polygon opacity="0.5935" fill="#30A06B" stroke="#4BB749" stroke-width="0.3226" stroke-miterlimit="10" points="
			715.398,-919.064 -740.142,265.639 429.344,1342.492 1831.651,104.721 		"/>
		<polygon opacity="0.6" fill="#31A16B" stroke="#4BB749" stroke-width="0.3333" stroke-miterlimit="10" points="727.797,-893.985 
			-726.702,284.103 428.725,1344.869 1828.216,111.943 		"/>
		<polygon opacity="0.6065" fill="#31A16A" stroke="#4BB749" stroke-width="0.3441" stroke-miterlimit="10" points="
			740.194,-868.906 -713.261,302.568 428.105,1347.246 1824.78,119.165 		"/>
		<polygon opacity="0.6129" fill="#32A16A" stroke="#4BB749" stroke-width="0.3548" stroke-miterlimit="10" points="
			752.593,-843.827 -699.821,321.033 427.485,1349.623 1821.345,126.388 		"/>
		<polygon opacity="0.6194" fill="#32A169" stroke="#4BB749" stroke-width="0.3656" stroke-miterlimit="10" points="
			764.991,-818.748 -686.381,339.498 426.867,1352 1817.909,133.61 		"/>
		<polygon opacity="0.6258" fill="#33A268" stroke="#4BB749" stroke-width="0.3763" stroke-miterlimit="10" points="
			777.389,-793.669 -672.94,357.962 426.247,1354.377 1814.474,140.833 		"/>
		<polygon opacity="0.6323" fill="#33A268" stroke="#4BB749" stroke-width="0.3871" stroke-miterlimit="10" points="
			789.786,-768.59 -659.5,376.427 425.628,1356.754 1811.038,148.056 		"/>
		<polygon opacity="0.6387" fill="#34A267" stroke="#4BB749" stroke-width="0.3978" stroke-miterlimit="10" points="
			802.185,-743.511 -646.06,394.893 425.009,1359.131 1807.603,155.277 		"/>
		<polygon opacity="0.6452" fill="#35A367" stroke="#4BB749" stroke-width="0.4086" stroke-miterlimit="10" points="
			814.583,-718.432 -632.619,413.357 424.39,1361.508 1804.166,162.5 		"/>
		<polygon opacity="0.6516" fill="#35A366" stroke="#4BB749" stroke-width="0.4194" stroke-miterlimit="10" points="
			826.982,-693.353 -619.178,431.822 423.771,1363.885 1800.73,169.723 		"/>
		<polygon opacity="0.6581" fill="#35A366" stroke="#4BB749" stroke-width="0.4301" stroke-miterlimit="10" points="
			839.38,-668.274 -605.738,450.285 423.151,1366.262 1797.296,176.944 		"/>
		<polygon opacity="0.6645" fill="#36A465" stroke="#4BB749" stroke-width="0.4409" stroke-miterlimit="10" points="
			851.778,-643.195 -592.297,468.752 422.532,1368.639 1793.858,184.166 		"/>
		<polygon opacity="0.671" fill="#36A464" stroke="#4BB749" stroke-width="0.4516" stroke-miterlimit="10" points="
			864.177,-618.116 -578.857,487.215 421.913,1371.016 1790.423,191.389 		"/>
		<polygon opacity="0.6774" fill="#37A464" stroke="#4BB749" stroke-width="0.4624" stroke-miterlimit="10" points="
			876.575,-593.037 -565.417,505.68 421.295,1373.393 1786.988,198.611 		"/>
		<polygon opacity="0.6839" fill="#37A563" stroke="#4BB749" stroke-width="0.4731" stroke-miterlimit="10" points="
			888.972,-567.958 -551.976,524.145 420.675,1375.77 1783.552,205.834 		"/>
		<polygon opacity="0.6903" fill="#38A563" stroke="#4BB749" stroke-width="0.4839" stroke-miterlimit="10" points="
			901.37,-542.879 -538.536,542.609 420.056,1378.146 1780.116,213.056 		"/>
		<polygon opacity="0.6968" fill="#38A562" stroke="#4BB749" stroke-width="0.4946" stroke-miterlimit="10" points="913.769,-517.8 
			-525.096,561.074 419.437,1380.523 1776.681,220.279 		"/>
		<polygon opacity="0.7032" fill="#39A661" stroke="#4BB749" stroke-width="0.5054" stroke-miterlimit="10" points="
			926.167,-492.721 -511.655,579.539 418.817,1382.902 1773.245,227.501 		"/>
		<polygon opacity="0.7097" fill="#39A661" stroke="#4BB749" stroke-width="0.5161" stroke-miterlimit="10" points="
			938.566,-467.642 -498.215,598.004 418.199,1385.277 1769.811,234.724 		"/>
		<polygon opacity="0.7161" fill="#3AA660" stroke="#4BB749" stroke-width="0.5269" stroke-miterlimit="10" points="
			950.964,-442.563 -484.774,616.469 417.579,1387.654 1766.374,241.946 		"/>
		<polygon opacity="0.7226" fill="#3AA760" stroke="#4BB749" stroke-width="0.5376" stroke-miterlimit="10" points="
			963.361,-417.483 -471.334,634.934 416.961,1390.031 1762.938,249.169 		"/>
		<polygon opacity="0.729" fill="#3BA75F" stroke="#4BB749" stroke-width="0.5484" stroke-miterlimit="10" points="
			975.761,-392.405 -457.894,653.398 416.343,1392.41 1759.503,256.391 		"/>
		<polygon opacity="0.7355" fill="#3BA75E" stroke="#4BB749" stroke-width="0.5591" stroke-miterlimit="10" points="
			988.158,-367.325 -444.453,671.863 415.723,1394.785 1756.067,263.613 		"/>
		<polygon opacity="0.7419" fill="#3BA75E" stroke="#4BB749" stroke-width="0.5699" stroke-miterlimit="10" points="
			1000.556,-342.247 -431.013,690.328 415.104,1397.164 1752.632,270.836 		"/>
		<polygon opacity="0.7484" fill="#3CA85D" stroke="#4BB749" stroke-width="0.5806" stroke-miterlimit="10" points="
			1012.954,-317.167 -417.573,708.793 414.484,1399.541 1749.196,278.058 		"/>
		<polygon opacity="0.7548" fill="#3CA85D" stroke="#4BB749" stroke-width="0.5914" stroke-miterlimit="10" points="
			1025.353,-292.088 -404.132,727.256 413.865,1401.916 1745.761,285.281 		"/>
		<polygon opacity="0.7613" fill="#3DA85C" stroke="#4BB749" stroke-width="0.6022" stroke-miterlimit="10" points="
			1037.751,-267.009 -390.691,745.723 413.246,1404.295 1742.325,292.503 		"/>
		<polygon opacity="0.7677" fill="#3DA95C" stroke="#4BB749" stroke-width="0.6129" stroke-miterlimit="10" points="
			1050.149,-241.93 -377.252,764.186 412.627,1406.67 1738.89,299.724 		"/>
		<polygon opacity="0.7742" fill="#3EA95B" stroke="#4BB749" stroke-width="0.6237" stroke-miterlimit="10" points="
			1062.548,-216.851 -363.811,782.65 412.008,1409.047 1735.454,306.947 		"/>
		<polygon opacity="0.7806" fill="#3EA95A" stroke="#4BB749" stroke-width="0.6344" stroke-miterlimit="10" points="
			1074.945,-191.772 -350.371,801.115 411.389,1411.426 1732.019,314.169 		"/>
		<polygon opacity="0.7871" fill="#3FAA5A" stroke="#4BB749" stroke-width="0.6452" stroke-miterlimit="10" points="
			1087.344,-166.693 -336.931,819.58 410.771,1413.801 1728.583,321.392 		"/>
		<polygon opacity="0.7935" fill="#3FAA59" stroke="#4BB749" stroke-width="0.6559" stroke-miterlimit="10" points="
			1099.741,-141.614 -323.49,838.045 410.151,1416.18 1725.147,328.615 		"/>
		<polygon opacity="0.8" fill="#40AA59" stroke="#4BB749" stroke-width="0.6667" stroke-miterlimit="10" points="1112.14,-116.535 
			-310.05,856.51 409.531,1418.557 1721.712,335.837 		"/>
		<polygon opacity="0.8065" fill="#40AB58" stroke="#4BB749" stroke-width="0.6774" stroke-miterlimit="10" points="
			1124.538,-91.456 -296.609,874.975 408.912,1420.932 1718.276,343.058 		"/>
		<polygon opacity="0.8129" fill="#40AB58" stroke="#4BB749" stroke-width="0.6882" stroke-miterlimit="10" points="
			1136.937,-66.377 -283.168,893.439 408.293,1423.311 1714.84,350.283 		"/>
		<polygon opacity="0.8194" fill="#41AB57" stroke="#4BB749" stroke-width="0.6989" stroke-miterlimit="10" points="
			1149.335,-41.298 -269.729,911.904 407.674,1425.688 1711.405,357.505 		"/>
		<polygon opacity="0.8258" fill="#41AC57" stroke="#4BB749" stroke-width="0.7097" stroke-miterlimit="10" points="
			1161.733,-16.219 -256.288,930.369 407.056,1428.064 1707.969,364.726 		"/>
		<polygon opacity="0.8323" fill="#42AC56" stroke="#4BB749" stroke-width="0.7204" stroke-miterlimit="10" points="1174.131,8.86 
			-242.847,948.834 406.437,1430.441 1704.533,371.951 		"/>
		<polygon opacity="0.8387" fill="#42AC55" stroke="#4BB749" stroke-width="0.7312" stroke-miterlimit="10" points="
			1186.529,33.939 -229.407,967.299 405.817,1432.818 1701.098,379.172 		"/>
		<polygon opacity="0.8452" fill="#43AD55" stroke="#4BB749" stroke-width="0.7419" stroke-miterlimit="10" points="
			1198.927,59.019 -215.967,985.764 405.198,1435.195 1697.662,386.395 		"/>
		<polygon opacity="0.8516" fill="#43AD54" stroke="#4BB749" stroke-width="0.7527" stroke-miterlimit="10" points="
			1211.324,84.098 -202.526,1004.229 404.578,1437.572 1694.228,393.617 		"/>
		<polygon opacity="0.8581" fill="#43AD54" stroke="#4BB749" stroke-width="0.7634" stroke-miterlimit="10" points="
			1223.724,109.177 -189.086,1022.693 403.96,1439.949 1690.791,400.84 		"/>
		<polygon opacity="0.8645" fill="#44AE53" stroke="#4BB749" stroke-width="0.7742" stroke-miterlimit="10" points="
			1236.122,134.256 -175.646,1041.156 403.341,1442.326 1687.355,408.063 		"/>
		<polygon opacity="0.871" fill="#44AE53" stroke="#4BB749" stroke-width="0.7849" stroke-miterlimit="10" points="
			1248.521,159.335 -162.205,1059.623 402.722,1444.703 1683.92,415.285 		"/>
		<polygon opacity="0.8774" fill="#45AF52" stroke="#4BB749" stroke-width="0.7957" stroke-miterlimit="10" points="
			1260.919,184.413 -148.765,1078.086 402.103,1447.08 1680.483,422.506 		"/>
		<polygon opacity="0.8839" fill="#45AF51" stroke="#4BB749" stroke-width="0.8065" stroke-miterlimit="10" points="
			1273.316,209.493 -135.324,1096.553 401.483,1449.457 1677.049,429.73 		"/>
		<polygon opacity="0.8903" fill="#46AF51" stroke="#4BB749" stroke-width="0.8172" stroke-miterlimit="10" points="
			1285.715,234.572 -121.884,1115.018 400.864,1451.834 1673.613,436.953 		"/>
		<polygon opacity="0.8968" fill="#46B050" stroke="#4BB749" stroke-width="0.828" stroke-miterlimit="10" points="1298.113,259.65 
			-108.443,1133.48 400.245,1454.211 1670.178,444.174 		"/>
		<polygon opacity="0.9032" fill="#46B050" stroke="#4BB749" stroke-width="0.8387" stroke-miterlimit="10" points="
			1310.512,284.73 -95.003,1151.945 399.626,1456.588 1666.741,451.396 		"/>
		<polygon opacity="0.9097" fill="#47B04F" stroke="#4BB749" stroke-width="0.8495" stroke-miterlimit="10" points="
			1322.909,309.808 -81.563,1170.41 399.007,1458.965 1663.306,458.619 		"/>
		<polygon opacity="0.9161" fill="#47B14F" stroke="#4BB749" stroke-width="0.8602" stroke-miterlimit="10" points="
			1335.308,334.888 -68.122,1188.875 398.388,1461.342 1659.87,465.842 		"/>
		<polygon opacity="0.9226" fill="#47B14E" stroke="#4BB749" stroke-width="0.871" stroke-miterlimit="10" points="
			1347.706,359.966 -54.682,1207.34 397.769,1463.719 1656.435,473.064 		"/>
		<polygon opacity="0.929" fill="#48B24D" stroke="#4BB749" stroke-width="0.8817" stroke-miterlimit="10" points="
			1360.104,385.047 -41.241,1225.805 397.15,1466.096 1652.999,480.285 		"/>
		<polygon opacity="0.9355" fill="#48B24D" stroke="#4BB749" stroke-width="0.8925" stroke-miterlimit="10" points="
			1372.503,410.125 -27.801,1244.27 396.53,1468.475 1649.563,487.508 		"/>
		<polygon opacity="0.9419" fill="#49B24C" stroke="#4BB749" stroke-width="0.9032" stroke-miterlimit="10" points="
			1384.899,435.205 -14.361,1262.734 395.911,1470.85 1646.128,494.73 		"/>
		<polygon opacity="0.9484" fill="#49B34C" stroke="#4BB749" stroke-width="0.914" stroke-miterlimit="10" points="
			1397.297,460.283 -0.92,1281.197 395.291,1473.227 1642.692,501.953 		"/>
		<polygon opacity="0.9548" fill="#49B34B" stroke="#4BB749" stroke-width="0.9247" stroke-miterlimit="10" points="
			1409.697,485.361 12.521,1299.662 394.673,1475.604 1639.257,509.176 		"/>
		<polygon opacity="0.9613" fill="#49B44B" stroke="#4BB749" stroke-width="0.9355" stroke-miterlimit="10" points="
			1422.095,510.441 25.961,1318.127 394.054,1477.98 1635.821,516.398 		"/>
		<polygon opacity="0.9677" fill="#4AB44B" stroke="#4BB749" stroke-width="0.9462" stroke-miterlimit="10" points="
			1434.492,541.471 39.4,1342.543 393.435,1486.309 1632.386,529.57 		"/>
		<polygon opacity="0.9742" fill="#4AB54A" stroke="#4BB749" stroke-width="0.957" stroke-miterlimit="10" points="
			1446.892,575.479 52.842,1369.936 392.816,1497.613 1628.95,545.721 		"/>
		<polygon opacity="0.9806" fill="#4AB54A" stroke="#4BB749" stroke-width="0.9677" stroke-miterlimit="10" points="
			1459.29,609.486 66.282,1397.328 392.197,1508.918 1625.515,561.871 		"/>
		<polygon opacity="0.9871" fill="#4AB649" stroke="#4BB749" stroke-width="0.9785" stroke-miterlimit="10" points="
			1471.688,643.492 79.722,1424.721 391.578,1520.225 1622.079,578.023 		"/>
		<polygon opacity="0.9935" fill="#4BB649" stroke="#4BB749" stroke-width="0.9892" stroke-miterlimit="10" points="1484.087,677.5 
			93.163,1452.115 390.958,1531.529 1618.644,594.174 		"/>
		<polygon fill="#4BB749" stroke="#4BB749" stroke-miterlimit="10" points="1496.484,711.508 106.604,1479.508 390.34,1542.836 
			1615.208,610.324 		"/>
		
			<polygon fill="#4BB649" stroke="#4BB649" stroke-width="1.129" stroke-linecap="round" stroke-linejoin="round" stroke-miterlimit="10" points="
			1482.593,685.453 92.448,1457.609 377.532,1524.566 1612.389,595.055 		"/>
		
			<polygon fill="#4AB649" stroke="#4AB649" stroke-width="1.2581" stroke-linecap="round" stroke-linejoin="round" stroke-miterlimit="10" points="
			1468.701,659.402 78.294,1435.713 364.726,1506.301 1609.569,579.785 		"/>
		
			<polygon fill="#4AB54A" stroke="#4AB54A" stroke-width="1.3871" stroke-linecap="round" stroke-linejoin="round" stroke-miterlimit="10" points="
			1454.813,633.35 64.141,1413.816 351.921,1488.033 1606.75,564.518 		"/>
		
			<polygon fill="#4AB54A" stroke="#4AB54A" stroke-width="1.5161" stroke-linecap="round" stroke-linejoin="round" stroke-miterlimit="10" points="
			1440.922,607.297 49.986,1391.92 339.115,1469.766 1603.932,549.25 		"/>
		
			<polygon fill="#4AB44B" stroke="#4AB44B" stroke-width="1.6452" stroke-linecap="round" stroke-linejoin="round" stroke-miterlimit="10" points="
			1427.031,581.244 35.833,1370.021 326.309,1451.498 1601.112,533.98 		"/>
		
			<polygon fill="#49B44B" stroke="#49B44B" stroke-width="1.7742" stroke-linecap="round" stroke-linejoin="round" stroke-miterlimit="10" points="
			1413.141,555.193 21.679,1348.125 313.502,1433.232 1598.293,518.711 		"/>
		
			<polygon fill="#49B34B" stroke="#49B34B" stroke-width="1.9032" stroke-linecap="round" stroke-linejoin="round" stroke-miterlimit="10" points="
			1399.251,529.141 7.525,1326.229 300.696,1414.965 1595.474,503.443 		"/>
		
			<polygon fill="#49B34C" stroke="#49B34C" stroke-width="2.0323" stroke-linecap="round" stroke-linejoin="round" stroke-miterlimit="10" points="
			1385.36,503.088 -6.628,1304.33 287.89,1396.697 1592.655,488.174 		"/>
		
			<polygon fill="#49B24C" stroke="#49B24C" stroke-width="2.1613" stroke-linecap="round" stroke-linejoin="round" stroke-miterlimit="10" points="
			1371.471,477.037 -20.782,1282.436 275.085,1378.432 1589.836,472.906 		"/>
		
			<polygon fill="#48B24D" stroke="#48B24D" stroke-width="2.2903" stroke-linecap="round" stroke-linejoin="round" stroke-miterlimit="10" points="
			1357.579,454.311 -34.936,1263.865 262.278,1363.492 1587.017,460.965 		"/>
		
			<polygon fill="#48B24D" stroke="#48B24D" stroke-width="2.4194" stroke-linecap="round" stroke-linejoin="round" stroke-miterlimit="10" points="
			1343.69,433.65 -49.09,1247.359 249.473,1350.615 1584.198,451.088 		"/>
		
			<polygon fill="#47B14E" stroke="#47B14E" stroke-width="2.5484" stroke-linecap="round" stroke-linejoin="round" stroke-miterlimit="10" points="
			1329.8,412.99 -63.244,1230.854 236.667,1337.74 1581.379,441.209 		"/>
		
			<polygon fill="#47B14F" stroke="#47B14F" stroke-width="2.6774" stroke-linecap="round" stroke-linejoin="round" stroke-miterlimit="10" points="
			1315.909,392.33 -77.397,1214.348 223.86,1324.865 1578.56,431.334 		"/>
		
			<polygon fill="#47B04F" stroke="#47B04F" stroke-width="2.8065" stroke-linecap="round" stroke-linejoin="round" stroke-miterlimit="10" points="
			1302.019,371.669 -91.551,1197.846 211.056,1311.992 1575.741,421.457 		"/>
		
			<polygon fill="#46B050" stroke="#46B050" stroke-width="2.9355" stroke-linecap="round" stroke-linejoin="round" stroke-miterlimit="10" points="
			1288.128,351.009 -105.705,1181.34 198.249,1299.115 1572.922,411.58 		"/>
		
			<polygon fill="#46B050" stroke="#46B050" stroke-width="3.0645" stroke-linecap="round" stroke-linejoin="round" stroke-miterlimit="10" points="
			1274.237,330.349 -119.859,1164.834 185.442,1286.24 1570.103,401.703 		"/>
		
			<polygon fill="#46AF51" stroke="#46AF51" stroke-width="3.1936" stroke-linecap="round" stroke-linejoin="round" stroke-miterlimit="10" points="
			1260.347,309.687 -134.013,1148.328 172.636,1273.365 1567.284,391.826 		"/>
		
			<polygon fill="#45AF51" stroke="#45AF51" stroke-width="3.3226" stroke-linecap="round" stroke-linejoin="round" stroke-miterlimit="10" points="
			1246.458,289.027 -148.167,1131.824 159.83,1260.49 1564.465,381.949 		"/>
		
			<polygon fill="#45AF52" stroke="#45AF52" stroke-width="3.4516" stroke-linecap="round" stroke-linejoin="round" stroke-miterlimit="10" points="
			1232.567,268.367 -162.32,1115.318 147.024,1247.615 1561.646,372.072 		"/>
		
			<polygon fill="#44AE53" stroke="#44AE53" stroke-width="3.5806" stroke-linecap="round" stroke-linejoin="round" stroke-miterlimit="10" points="
			1218.677,247.707 -176.474,1098.814 134.219,1234.74 1558.827,362.195 		"/>
		
			<polygon fill="#44AE53" stroke="#44AE53" stroke-width="3.7097" stroke-linecap="round" stroke-linejoin="round" stroke-miterlimit="10" points="
			1204.787,227.047 -190.628,1082.309 121.413,1221.865 1556.008,352.318 		"/>
		
			<polygon fill="#43AD54" stroke="#43AD54" stroke-width="3.8387" stroke-linecap="round" stroke-linejoin="round" stroke-miterlimit="10" points="
			1190.896,206.387 -204.781,1065.803 108.607,1208.99 1553.188,342.443 		"/>
		
			<polygon fill="#43AD54" stroke="#43AD54" stroke-width="3.9677" stroke-linecap="round" stroke-linejoin="round" stroke-miterlimit="10" points="
			1177.006,185.726 -218.936,1049.299 95.801,1196.115 1550.37,332.566 		"/>
		
			<polygon fill="#43AD55" stroke="#43AD55" stroke-width="4.0968" stroke-linecap="round" stroke-linejoin="round" stroke-miterlimit="10" points="
			1163.116,165.065 -233.089,1032.795 82.995,1183.24 1547.551,322.689 		"/>
		
			<polygon fill="#42AC55" stroke="#42AC55" stroke-width="4.2258" stroke-linecap="round" stroke-linejoin="round" stroke-miterlimit="10" points="
			1149.225,144.405 -247.243,1016.289 70.189,1170.365 1544.731,312.812 		"/>
		
			<polygon fill="#42AC56" stroke="#42AC56" stroke-width="4.3548" stroke-linecap="round" stroke-linejoin="round" stroke-miterlimit="10" points="
			1135.335,123.745 -261.397,999.785 57.383,1157.49 1541.913,302.935 		"/>
		
			<polygon fill="#41AC57" stroke="#41AC57" stroke-width="4.4839" stroke-linecap="round" stroke-linejoin="round" stroke-miterlimit="10" points="
			1121.445,103.085 -275.551,983.279 44.577,1144.615 1539.094,293.058 		"/>
		
			<polygon fill="#41AB57" stroke="#41AB57" stroke-width="4.6129" stroke-linecap="round" stroke-linejoin="round" stroke-miterlimit="10" points="
			1107.555,82.425 -289.704,966.773 31.771,1131.738 1536.274,283.183 		"/>
		
			<polygon fill="#40AB58" stroke="#40AB58" stroke-width="4.7419" stroke-linecap="round" stroke-linejoin="round" stroke-miterlimit="10" points="
			1093.664,61.764 -303.858,950.268 18.965,1118.863 1533.455,273.304 		"/>
		
			<polygon fill="#40AB58" stroke="#40AB58" stroke-width="4.871" stroke-linecap="round" stroke-linejoin="round" stroke-miterlimit="10" points="
			1079.773,41.104 -318.012,933.764 6.159,1105.99 1530.637,263.429 		"/>
		
			<polygon fill="#40AA59" stroke="#40AA59" stroke-width="5" stroke-linecap="round" stroke-linejoin="round" stroke-miterlimit="10" points="
			1065.884,20.443 -332.166,917.258 -6.647,1093.113 1527.817,253.552 		"/>
		
			<polygon fill="#3FAA59" stroke="#3FAA59" stroke-width="5.129" stroke-linecap="round" stroke-linejoin="round" stroke-miterlimit="10" points="
			1051.993,-0.217 -346.319,900.754 -19.453,1080.238 1524.998,243.676 		"/>
		
			<polygon fill="#3FAA5A" stroke="#3FAA5A" stroke-width="5.2581" stroke-linecap="round" stroke-linejoin="round" stroke-miterlimit="10" points="
			1038.104,-20.877 -360.474,884.248 -32.259,1067.363 1522.18,233.798 		"/>
		
			<polygon fill="#3EA95A" stroke="#3EA95A" stroke-width="5.3871" stroke-linecap="round" stroke-linejoin="round" stroke-miterlimit="10" points="
			1024.213,-41.538 -374.627,867.744 -45.065,1054.488 1519.36,223.921 		"/>
		
			<polygon fill="#3EA95B" stroke="#3EA95B" stroke-width="5.5161" stroke-linecap="round" stroke-linejoin="round" stroke-miterlimit="10" points="
			1010.322,-62.198 -388.781,851.238 -57.871,1041.613 1516.541,214.045 		"/>
		
			<polygon fill="#3DA95C" stroke="#3DA95C" stroke-width="5.6452" stroke-linecap="round" stroke-linejoin="round" stroke-miterlimit="10" points="
			996.432,-82.858 -402.936,834.734 -70.677,1028.738 1513.723,204.168 		"/>
		
			<polygon fill="#3DA85C" stroke="#3DA85C" stroke-width="5.7742" stroke-linecap="round" stroke-linejoin="round" stroke-miterlimit="10" points="
			982.542,-103.519 -417.089,818.229 -83.483,1015.863 1510.903,194.291 		"/>
		
			<polygon fill="#3CA85D" stroke="#3CA85D" stroke-width="5.9032" stroke-linecap="round" stroke-linejoin="round" stroke-miterlimit="10" points="
			968.651,-124.18 -431.243,801.725 -96.289,1002.988 1508.085,184.415 		"/>
		
			<polygon fill="#3CA85D" stroke="#3CA85D" stroke-width="6.0323" stroke-linecap="round" stroke-linejoin="round" stroke-miterlimit="10" points="
			954.761,-144.84 -445.396,785.219 -109.095,990.113 1505.266,174.537 		"/>
		
			<polygon fill="#3BA75E" stroke="#3BA75E" stroke-width="6.1613" stroke-linecap="round" stroke-linejoin="round" stroke-miterlimit="10" points="
			940.872,-165.5 -459.55,768.715 -121.901,977.238 1502.446,164.661 		"/>
		
			<polygon fill="#3BA75E" stroke="#3BA75E" stroke-width="6.2903" stroke-linecap="round" stroke-linejoin="round" stroke-miterlimit="10" points="
			926.98,-186.161 -473.704,752.209 -134.707,964.363 1499.627,154.784 		"/>
		
			<polygon fill="#3BA75F" stroke="#3BA75F" stroke-width="6.4194" stroke-linecap="round" stroke-linejoin="round" stroke-miterlimit="10" points="
			913.091,-206.821 -487.858,735.703 -147.513,951.488 1496.808,144.906 		"/>
		
			<polygon fill="#3AA760" stroke="#3AA760" stroke-width="6.5484" stroke-linecap="round" stroke-linejoin="round" stroke-miterlimit="10" points="
			899.2,-227.481 -502.011,719.197 -160.318,938.613 1493.988,135.03 		"/>
		
			<polygon fill="#3AA660" stroke="#3AA660" stroke-width="6.6774" stroke-linecap="round" stroke-linejoin="round" stroke-miterlimit="10" points="
			885.309,-248.142 -516.166,702.693 -173.125,925.738 1491.17,125.153 		"/>
		
			<polygon fill="#39A661" stroke="#39A661" stroke-width="6.8065" stroke-linecap="round" stroke-linejoin="round" stroke-miterlimit="10" points="
			871.419,-268.802 -530.319,686.188 -185.931,912.863 1488.351,115.276 		"/>
		
			<polygon fill="#39A661" stroke="#39A661" stroke-width="6.9355" stroke-linecap="round" stroke-linejoin="round" stroke-miterlimit="10" points="
			857.528,-289.463 -544.473,669.684 -198.737,899.988 1485.532,105.4 		"/>
		
			<polygon fill="#38A562" stroke="#38A562" stroke-width="7.0645" stroke-linecap="round" stroke-linejoin="round" stroke-miterlimit="10" points="
			843.639,-310.123 -558.627,653.178 -211.543,887.111 1482.713,95.522 		"/>
		
			<polygon fill="#38A563" stroke="#38A563" stroke-width="7.1935" stroke-linecap="round" stroke-linejoin="round" stroke-miterlimit="10" points="
			829.748,-330.783 -572.781,636.672 -224.35,874.236 1479.894,85.646 		"/>
		
			<polygon fill="#37A563" stroke="#37A563" stroke-width="7.3226" stroke-linecap="round" stroke-linejoin="round" stroke-miterlimit="10" points="
			815.857,-351.444 -586.935,620.166 -237.156,861.361 1477.075,75.77 		"/>
		
			<polygon fill="#37A464" stroke="#37A464" stroke-width="7.4516" stroke-linecap="round" stroke-linejoin="round" stroke-miterlimit="10" points="
			801.968,-372.104 -601.088,603.662 -249.961,848.486 1474.255,65.893 		"/>
		
			<polygon fill="#36A464" stroke="#36A464" stroke-width="7.5806" stroke-linecap="round" stroke-linejoin="round" stroke-miterlimit="10" points="
			788.077,-392.765 -615.242,587.156 -262.767,835.611 1471.436,56.016 		"/>
		
			<polygon fill="#36A465" stroke="#36A465" stroke-width="7.7097" stroke-linecap="round" stroke-linejoin="round" stroke-miterlimit="10" points="
			774.187,-413.425 -629.396,570.652 -275.573,822.736 1468.617,46.139 		"/>
		
			<polygon fill="#35A366" stroke="#35A366" stroke-width="7.8387" stroke-linecap="round" stroke-linejoin="round" stroke-miterlimit="10" points="
			760.296,-434.085 -643.55,554.146 -288.379,809.861 1465.798,36.262 		"/>
		
			<polygon fill="#35A366" stroke="#35A366" stroke-width="7.9677" stroke-linecap="round" stroke-linejoin="round" stroke-miterlimit="10" points="
			746.406,-454.746 -657.704,537.643 -301.185,796.986 1462.979,26.385 		"/>
		
			<polygon fill="#35A367" stroke="#35A367" stroke-width="8.0968" stroke-linecap="round" stroke-linejoin="round" stroke-miterlimit="10" points="
			732.516,-475.406 -671.858,521.137 -313.991,784.111 1460.16,16.508 		"/>
		
			<polygon fill="#34A267" stroke="#34A267" stroke-width="8.2258" stroke-linecap="round" stroke-linejoin="round" stroke-miterlimit="10" points="
			718.625,-496.066 -686.011,504.633 -326.797,771.236 1457.341,6.632 		"/>
		
			<polygon fill="#33A268" stroke="#33A268" stroke-width="8.3548" stroke-linecap="round" stroke-linejoin="round" stroke-miterlimit="10" points="
			704.735,-516.727 -700.166,488.127 -339.604,758.361 1454.522,-3.245 		"/>
		
			<polygon fill="#33A268" stroke="#33A268" stroke-width="8.4839" stroke-linecap="round" stroke-linejoin="round" stroke-miterlimit="10" points="
			690.846,-537.388 -714.319,471.621 -352.408,745.486 1451.703,-13.122 		"/>
		
			<polygon fill="#32A169" stroke="#32A169" stroke-width="8.6129" stroke-linecap="round" stroke-linejoin="round" stroke-miterlimit="10" points="
			676.954,-558.048 -728.473,455.117 -365.214,732.611 1448.884,-22.999 		"/>
		
			<polygon fill="#32A16A" stroke="#32A16A" stroke-width="8.7419" stroke-linecap="round" stroke-linejoin="round" stroke-miterlimit="10" points="
			663.064,-578.708 -742.627,438.611 -378.021,719.734 1446.065,-32.875 		"/>
		
			<polygon fill="#31A16A" stroke="#31A16A" stroke-width="8.871" stroke-linecap="round" stroke-linejoin="round" stroke-miterlimit="10" points="
			649.175,-599.369 -756.78,422.105 -390.827,706.859 1443.245,-42.752 		"/>
		
			<polygon fill="#31A16B" stroke="#31A16B" stroke-width="9" stroke-linecap="round" stroke-linejoin="round" stroke-miterlimit="10" points="
			635.283,-620.029 -770.935,405.602 -403.633,693.984 1440.427,-52.629 		"/>
		
			<polygon fill="#30A06B" stroke="#30A06B" stroke-width="9.129" stroke-linecap="round" stroke-linejoin="round" stroke-miterlimit="10" points="
			621.394,-640.689 -785.088,389.096 -416.439,681.109 1437.608,-62.506 		"/>
		
			<polygon fill="#30A06C" stroke="#30A06C" stroke-width="9.2581" stroke-linecap="round" stroke-linejoin="round" stroke-miterlimit="10" points="
			607.503,-661.35 -799.242,372.591 -429.245,668.234 1434.789,-72.382 		"/>
		
			<polygon fill="#2FA06C" stroke="#2FA06C" stroke-width="9.3871" stroke-linecap="round" stroke-linejoin="round" stroke-miterlimit="10" points="
			593.612,-682.01 -813.396,356.085 -442.052,655.359 1431.97,-82.259 		"/>
		
			<polygon fill="#2F9F6D" stroke="#2F9F6D" stroke-width="9.5161" stroke-linecap="round" stroke-linejoin="round" stroke-miterlimit="10" points="
			579.723,-702.67 -827.55,339.582 -454.857,642.484 1429.15,-92.136 		"/>
		
			<polygon fill="#2E9F6E" stroke="#2E9F6E" stroke-width="9.6452" stroke-linecap="round" stroke-linejoin="round" stroke-miterlimit="10" points="
			565.833,-723.331 -841.704,323.076 -467.663,629.609 1426.331,-102.013 		"/>
		
			<polygon fill="#2E9F6E" stroke="#2E9F6E" stroke-width="9.7742" stroke-linecap="round" stroke-linejoin="round" stroke-miterlimit="10" points="
			551.941,-743.991 -855.857,306.57 -480.469,616.734 1423.513,-111.89 		"/>
		
			<polygon fill="#2D9E6F" stroke="#2D9E6F" stroke-width="9.9032" stroke-linecap="round" stroke-linejoin="round" stroke-miterlimit="10" points="
			538.052,-764.652 -870.011,290.064 -493.274,603.859 1420.693,-121.767 		"/>
		
			<polygon fill="#2D9E6F" stroke="#2D9E6F" stroke-width="10.0323" stroke-linecap="round" stroke-linejoin="round" stroke-miterlimit="10" points="
			524.161,-785.312 -884.165,273.56 -506.081,590.984 1417.874,-131.644 		"/>
		
			<polygon fill="#2C9E70" stroke="#2C9E70" stroke-width="10.1613" stroke-linecap="round" stroke-linejoin="round" stroke-miterlimit="10" points="
			515.559,-807.616 -893.031,255.412 -513.6,576.465 1420.343,-143.163 		"/>
		
			<polygon fill="#2C9E70" stroke="#2C9E70" stroke-width="10.2903" stroke-linecap="round" stroke-linejoin="round" stroke-miterlimit="10" points="
			507.642,-830.132 -901.21,237.051 -520.431,561.732 1423.499,-154.897 		"/>
		
			<polygon fill="#2B9D71" stroke="#2B9D71" stroke-width="10.4194" stroke-linecap="round" stroke-linejoin="round" stroke-miterlimit="10" points="
			499.727,-852.65 -909.39,218.688 -527.263,547.002 1426.654,-166.631 		"/>
		
			<polygon fill="#2B9D71" stroke="#2B9D71" stroke-width="10.5484" stroke-linecap="round" stroke-linejoin="round" stroke-miterlimit="10" points="
			491.812,-875.167 -917.569,200.327 -534.094,532.27 1429.81,-178.364 		"/>
		
			<polygon fill="#2A9D72" stroke="#2A9D72" stroke-width="10.6774" stroke-linecap="round" stroke-linejoin="round" stroke-miterlimit="10" points="
			483.896,-897.684 -925.748,181.966 -540.925,517.539 1432.965,-190.097 		"/>
		
			<polygon fill="#2A9C72" stroke="#2A9C72" stroke-width="10.8065" stroke-linecap="round" stroke-linejoin="round" stroke-miterlimit="10" points="
			475.979,-920.201 -933.928,163.604 -547.757,502.807 1436.12,-201.831 		"/>
		
			<polygon fill="#299C73" stroke="#299C73" stroke-width="10.9355" stroke-linecap="round" stroke-linejoin="round" stroke-miterlimit="10" points="
			468.063,-942.718 -942.107,145.242 -554.588,488.074 1439.276,-213.564 		"/>
		
			<polygon fill="#289C73" stroke="#289C73" stroke-width="11.0645" stroke-linecap="round" stroke-linejoin="round" stroke-miterlimit="10" points="
			460.147,-965.235 -950.287,126.881 -561.42,473.344 1442.432,-225.298 		"/>
		
			<polygon fill="#289B74" stroke="#289B74" stroke-width="11.1936" stroke-linecap="round" stroke-linejoin="round" stroke-miterlimit="10" points="
			452.232,-987.752 -958.465,108.519 -568.251,458.611 1445.587,-237.031 		"/>
		
			<polygon fill="#279B74" stroke="#279B74" stroke-width="11.3226" stroke-linecap="round" stroke-linejoin="round" stroke-miterlimit="10" points="
			444.316,-1010.269 -966.645,90.156 -575.083,443.879 1448.742,-248.765 		"/>
		
			<polygon fill="#279B75" stroke="#279B75" stroke-width="11.4516" stroke-linecap="round" stroke-linejoin="round" stroke-miterlimit="10" points="
			436.4,-1032.786 -974.824,71.795 -581.915,429.148 1451.898,-260.498 		"/>
		
			<polygon fill="#269B75" stroke="#269B75" stroke-width="11.5806" stroke-linecap="round" stroke-linejoin="round" stroke-miterlimit="10" points="
			428.485,-1055.303 -983.003,53.433 -588.745,414.416 1455.054,-272.231 		"/>
		
			<polygon fill="#269A76" stroke="#269A76" stroke-width="11.7097" stroke-linecap="round" stroke-linejoin="round" stroke-miterlimit="10" points="
			420.568,-1077.82 -991.183,35.071 -595.577,399.684 1458.209,-283.965 		"/>
		
			<polygon fill="#259A76" stroke="#259A76" stroke-width="11.8387" stroke-linecap="round" stroke-linejoin="round" stroke-miterlimit="10" points="
			412.653,-1100.337 -999.362,16.71 -602.408,384.953 1461.364,-295.698 		"/>
		
			<polygon fill="#249A77" stroke="#249A77" stroke-width="11.9677" stroke-linecap="round" stroke-linejoin="round" stroke-miterlimit="10" points="
			404.738,-1122.854 -1007.541,-1.652 -609.239,370.22 1464.52,-307.432 		"/>
		
			<polygon fill="#249977" stroke="#249977" stroke-width="12.0968" stroke-linecap="round" stroke-linejoin="round" stroke-miterlimit="10" points="
			396.822,-1145.371 -1015.72,-20.014 -616.071,355.488 1467.676,-319.166 		"/>
		
			<polygon fill="#239978" stroke="#239978" stroke-width="12.2258" stroke-linecap="round" stroke-linejoin="round" stroke-miterlimit="10" points="
			388.906,-1167.888 -1023.899,-38.375 -622.902,340.757 1470.831,-330.898 		"/>
		
			<polygon fill="#229978" stroke="#229978" stroke-width="12.3548" stroke-linecap="round" stroke-linejoin="round" stroke-miterlimit="10" points="
			380.99,-1190.405 -1032.079,-56.737 -629.733,326.025 1473.986,-342.632 		"/>
		
			<polygon fill="#229979" stroke="#229979" stroke-width="12.4839" stroke-linecap="round" stroke-linejoin="round" stroke-miterlimit="10" points="
			373.074,-1212.922 -1040.258,-75.099 -636.565,311.292 1477.142,-354.365 		"/>
		
			<polygon fill="#219879" stroke="#219879" stroke-width="12.6129" stroke-linecap="round" stroke-linejoin="round" stroke-miterlimit="10" points="
			365.159,-1235.439 -1048.438,-93.46 -643.397,296.562 1480.298,-366.099 		"/>
		
			<polygon fill="#20987A" stroke="#20987A" stroke-width="12.7419" stroke-linecap="round" stroke-linejoin="round" stroke-miterlimit="10" points="
			357.244,-1257.956 -1056.616,-111.822 -650.228,281.83 1483.453,-377.832 		"/>
		
			<polygon fill="#20987A" stroke="#20987A" stroke-width="12.871" stroke-linecap="round" stroke-linejoin="round" stroke-miterlimit="10" points="
			349.327,-1280.473 -1064.796,-130.184 -657.06,267.098 1486.609,-389.566 		"/>
		
			<polygon fill="#1F977A" stroke="#1F977A" stroke-width="13" stroke-linecap="round" stroke-linejoin="round" stroke-miterlimit="10" points="
			341.411,-1302.99 -1072.976,-148.545 -663.892,252.366 1489.764,-401.299 		"/>
	</g>
</g>
<g id="Layer_2">
	<g>
		<g>
			<path fill="#FFFFFF" d="M436.238,189.946c0,0.303-0.062,0.559-0.181,0.768c-0.12,0.208-0.335,0.388-0.646,0.539
				c-0.309,0.151-0.715,0.265-1.214,0.341c-0.499,0.075-1.109,0.113-1.832,0.113c-0.794,0-1.439-0.038-1.939-0.113
				c-0.499-0.078-0.896-0.191-1.188-0.341c-0.293-0.151-0.491-0.332-0.594-0.539c-0.103-0.208-0.154-0.465-0.154-0.768v-6.762
				c-2.653,3.22-5.271,5.568-7.853,7.046c-2.583,1.477-5.2,2.216-7.852,2.216c-3.099,0-5.709-0.57-7.825-1.706
				c-2.119-1.136-3.833-2.68-5.14-4.63c-1.31-1.951-2.247-4.223-2.816-6.819c-0.568-2.595-0.852-5.748-0.852-9.461v-31.023
				c0-0.304,0.06-0.56,0.181-0.768c0.121-0.208,0.353-0.398,0.698-0.57c0.343-0.168,0.792-0.283,1.343-0.339
				c0.549-0.057,1.239-0.085,2.066-0.085s1.516,0.029,2.066,0.085c0.552,0.056,0.99,0.17,1.318,0.339
				c0.327,0.171,0.559,0.362,0.697,0.57c0.138,0.208,0.206,0.464,0.206,0.768v29.773c0,2.994,0.198,5.389,0.595,7.188
				c0.395,1.8,1,3.334,1.809,4.602c0.808,1.27,1.833,2.253,3.073,2.955c1.239,0.702,2.685,1.051,4.338,1.051
				c2.135,0,4.262-0.833,6.379-2.499c2.118-1.667,4.364-4.11,6.741-7.331v-35.74c0-0.304,0.06-0.56,0.183-0.768
				c0.118-0.208,0.353-0.398,0.695-0.57c0.344-0.168,0.784-0.283,1.318-0.339c0.532-0.057,1.23-0.085,2.091-0.085
				c0.827,0,1.517,0.029,2.068,0.085c0.55,0.056,0.982,0.17,1.292,0.339c0.31,0.171,0.542,0.362,0.697,0.57s0.232,0.464,0.232,0.768
				V189.946z"/>
			<path fill="#FFFFFF" d="M489.359,162.161c0,1.476-0.337,2.528-1.011,3.153c-0.676,0.625-1.447,0.938-2.312,0.938h-30.617
				c0,2.839,0.26,5.399,0.778,7.67c0.519,2.271,1.384,4.224,2.596,5.853c1.212,1.627,2.786,2.879,4.723,3.75
				c1.94,0.872,4.31,1.306,7.114,1.306c2.214,0,4.185-0.198,5.917-0.596c1.729-0.398,3.226-0.843,4.488-1.336
				c1.265-0.491,2.302-0.937,3.114-1.334c0.814-0.398,1.429-0.596,1.846-0.596c0.242,0,0.456,0.066,0.646,0.198
				c0.191,0.133,0.336,0.333,0.441,0.597c0.102,0.265,0.181,0.634,0.233,1.107c0.051,0.475,0.079,1.051,0.079,1.734
				c0,0.493-0.019,0.918-0.051,1.278c-0.035,0.36-0.077,0.682-0.129,0.966c-0.051,0.285-0.139,0.54-0.257,0.767
				c-0.124,0.227-0.276,0.446-0.465,0.653c-0.19,0.208-0.752,0.55-1.68,1.022c-0.93,0.475-2.134,0.939-3.615,1.393
				c-1.481,0.455-3.195,0.86-5.14,1.222c-1.945,0.36-4.022,0.54-6.225,0.54c-3.823,0-7.173-0.588-10.048-1.762
				c-2.875-1.173-5.295-2.916-7.257-5.227c-1.963-2.311-3.443-5.21-4.444-8.694c-0.999-3.485-1.497-7.538-1.497-12.159
				c0-4.395,0.518-8.344,1.549-11.848c1.033-3.503,2.522-6.478,4.469-8.92c1.944-2.444,4.294-4.319,7.051-5.626
				c2.753-1.307,5.835-1.959,9.247-1.959c3.649,0,6.757,0.644,9.323,1.932c2.565,1.288,4.675,3.021,6.328,5.198
				c1.653,2.18,2.867,4.736,3.643,7.672c0.773,2.936,1.162,6.071,1.162,9.403V162.161z M480.784,159.376
				c0.102-4.924-0.893-8.789-2.991-11.592c-2.095-2.803-5.206-4.206-9.329-4.206c-2.113,0-3.965,0.437-5.559,1.308
				c-1.594,0.871-2.928,2.026-4.003,3.465c-1.075,1.44-1.905,3.117-2.494,5.03c-0.589,1.913-0.918,3.912-0.989,5.995H480.784
				L480.784,159.376z"/>
			<path fill="#FFFFFF" d="M526.829,142.159c0,0.834-0.017,1.534-0.052,2.103c-0.033,0.567-0.103,1.015-0.205,1.335
				c-0.105,0.322-0.234,0.568-0.388,0.739c-0.155,0.17-0.371,0.255-0.646,0.255s-0.612-0.085-1.007-0.255
				c-0.397-0.171-0.846-0.341-1.344-0.512c-0.501-0.17-1.058-0.331-1.681-0.483c-0.62-0.151-1.289-0.227-2.014-0.227
				c-0.86,0-1.706,0.191-2.53,0.568c-0.828,0.379-1.699,1.004-2.61,1.875c-0.913,0.871-1.869,2.026-2.865,3.466
				c-0.999,1.439-2.103,3.202-3.307,5.285v33.639c0,0.303-0.068,0.559-0.205,0.768c-0.138,0.208-0.363,0.388-0.672,0.539
				s-0.742,0.265-1.292,0.341c-0.552,0.075-1.257,0.113-2.12,0.113c-0.825,0-1.517-0.038-2.065-0.113
				c-0.552-0.078-0.99-0.191-1.317-0.341c-0.327-0.151-0.55-0.332-0.67-0.539c-0.122-0.208-0.18-0.465-0.18-0.768v-51.139
				c0-0.304,0.051-0.56,0.152-0.768c0.104-0.208,0.311-0.398,0.619-0.57c0.311-0.168,0.708-0.283,1.189-0.339
				c0.482-0.057,1.119-0.085,1.911-0.085c0.758,0,1.387,0.029,1.885,0.085c0.499,0.056,0.888,0.17,1.164,0.339
				c0.274,0.171,0.472,0.362,0.593,0.57c0.122,0.208,0.182,0.464,0.182,0.768v7.442c1.272-2.045,2.471-3.712,3.587-5
				c1.122-1.287,2.18-2.301,3.18-3.04c0.997-0.74,1.988-1.25,2.969-1.534c0.983-0.284,1.973-0.426,2.97-0.426
				c0.448,0,0.956,0.028,1.525,0.084c0.566,0.057,1.162,0.162,1.78,0.313c0.622,0.152,1.183,0.323,1.68,0.511
				c0.499,0.191,0.855,0.38,1.058,0.569c0.208,0.191,0.347,0.37,0.413,0.54c0.07,0.171,0.13,0.39,0.182,0.654
				c0.052,0.265,0.085,0.653,0.104,1.165C526.821,140.597,526.829,141.289,526.829,142.159z"/>
			<path fill="#FFFFFF" d="M543.92,121.532c0,2.199-0.381,3.695-1.137,4.489c-0.759,0.796-2.153,1.194-4.185,1.194
				c-1.997,0-3.365-0.389-4.106-1.165c-0.74-0.777-1.11-2.245-1.11-4.404c0-2.196,0.378-3.694,1.137-4.489
				c0.759-0.795,2.15-1.192,4.183-1.192c1.998,0,3.366,0.388,4.106,1.164C543.549,117.905,543.92,119.373,543.92,121.532z
				 M542.937,189.946c0,0.303-0.069,0.559-0.207,0.768c-0.138,0.208-0.362,0.388-0.671,0.539c-0.31,0.151-0.74,0.265-1.293,0.341
				c-0.551,0.075-1.257,0.113-2.116,0.113c-0.828,0-1.517-0.038-2.067-0.113c-0.554-0.078-0.992-0.191-1.317-0.341
				c-0.329-0.151-0.553-0.332-0.673-0.539c-0.121-0.208-0.18-0.465-0.18-0.768v-51.139c0-0.266,0.06-0.513,0.18-0.739
				c0.12-0.228,0.344-0.417,0.673-0.569c0.326-0.15,0.764-0.265,1.317-0.34c0.55-0.077,1.239-0.114,2.067-0.114
				c0.859,0,1.565,0.038,2.116,0.114c0.553,0.077,0.983,0.189,1.293,0.34c0.309,0.152,0.533,0.342,0.671,0.569
				c0.138,0.227,0.207,0.474,0.207,0.739V189.946z"/>
			<path fill="#FFFFFF" d="M465.371,282.513c0,0.304-0.069,0.56-0.205,0.769c-0.14,0.208-0.361,0.389-0.671,0.539
				c-0.312,0.152-0.742,0.265-1.293,0.342c-0.551,0.074-1.24,0.113-2.066,0.113c-0.862,0-1.568-0.039-2.117-0.113
				c-0.552-0.077-0.99-0.189-1.319-0.342c-0.326-0.15-0.561-0.331-0.696-0.539c-0.14-0.209-0.207-0.465-0.207-0.769v-31.08
				c0-2.16-0.173-4.128-0.517-5.909c-0.346-1.78-0.896-3.315-1.654-4.602c-0.757-1.289-1.72-2.273-2.892-2.956
				c-1.17-0.68-2.548-1.022-4.133-1.022c-1.962,0-3.935,0.834-5.915,2.5c-1.98,1.667-4.158,4.111-6.535,7.329v35.742
				c0,0.304-0.069,0.558-0.206,0.768c-0.139,0.208-0.372,0.388-0.697,0.538c-0.33,0.153-0.768,0.267-1.318,0.342
				c-0.553,0.076-1.24,0.114-2.068,0.114c-0.791,0-1.471-0.038-2.04-0.114c-0.567-0.075-1.016-0.188-1.343-0.342
				c-0.327-0.15-0.551-0.33-0.67-0.538c-0.122-0.209-0.181-0.464-0.181-0.768v-31.081c0-2.159-0.19-4.128-0.568-5.909
				c-0.38-1.78-0.947-3.315-1.705-4.604c-0.76-1.286-1.714-2.272-2.867-2.954c-1.155-0.682-2.523-1.024-4.107-1.024
				c-1.963,0-3.944,0.834-5.941,2.5c-1.997,1.668-4.167,4.111-6.508,7.331v35.74c0,0.304-0.07,0.56-0.208,0.768
				c-0.138,0.208-0.36,0.39-0.67,0.54c-0.31,0.152-0.741,0.265-1.292,0.341c-0.551,0.075-1.257,0.113-2.119,0.113
				c-0.826,0-1.515-0.038-2.066-0.113c-0.551-0.076-0.99-0.189-1.318-0.341c-0.326-0.149-0.55-0.331-0.67-0.54
				c-0.12-0.208-0.179-0.464-0.179-0.768v-51.138c0-0.305,0.05-0.561,0.153-0.77c0.103-0.206,0.311-0.396,0.62-0.566
				c0.309-0.171,0.705-0.284,1.188-0.341c0.481-0.058,1.119-0.085,1.911-0.085c0.758,0,1.386,0.027,1.887,0.085
				c0.499,0.058,0.887,0.17,1.163,0.341c0.275,0.17,0.473,0.36,0.594,0.566c0.121,0.209,0.181,0.464,0.181,0.77v6.762
				c2.617-3.221,5.157-5.577,7.619-7.076c2.462-1.495,4.95-2.243,7.464-2.243c1.929,0,3.66,0.246,5.191,0.739
				c1.533,0.492,2.885,1.183,4.056,2.073c1.169,0.89,2.168,1.95,2.996,3.181c0.827,1.231,1.515,2.606,2.066,4.121
				c1.55-1.855,3.021-3.43,4.417-4.718c1.395-1.288,2.737-2.328,4.028-3.124c1.292-0.795,2.548-1.374,3.772-1.733
				c1.221-0.361,2.454-0.541,3.694-0.541c2.995,0,5.508,0.579,7.541,1.735c2.031,1.155,3.676,2.696,4.933,4.63
				c1.258,1.932,2.154,4.194,2.688,6.789c0.532,2.596,0.8,5.333,0.8,8.211v32.329H465.371z"/>
		</g>
		<path fill="#FFFFFF" stroke="#FFFFFF" stroke-width="0.7" stroke-miterlimit="10" d="M383.695,151.216
			c0,27.499-18.75,49.792-41.876,49.792c-23.126,0-41.877-22.293-41.877-49.792c0-27.498,18.751-49.792,41.877-49.792
			C364.945,101.424,383.695,123.718,383.695,151.216z M341.818,110.731c-18.803,0-34.047,18.127-34.047,40.486
			c0,22.362,15.244,40.488,34.047,40.488c18.805,0,34.047-18.126,34.047-40.488C375.866,128.856,360.623,110.731,341.818,110.731z"
			/>
		<ellipse fill="#FFFFFF" stroke="#FFFFFF" stroke-miterlimit="10" cx="325.655" cy="136.591" rx="5.144" ry="8.082"/>
		<ellipse fill="#FFFFFF" stroke="#FFFFFF" stroke-miterlimit="10" cx="356.512" cy="136.591" rx="5.143" ry="8.082"/>
		<g>
			<linearGradient id="SVGID_1_" gradientUnits="userSpaceOnUse" x1="329.1426" y1="169.6567" x2="363.3438" y2="169.6567">
				<stop  offset="0.8065" style="stop-color:#FFFFFF"/>
				<stop  offset="1" style="stop-color:#FFFFFF"/>
			</linearGradient>
			<path fill="#FFFFFF" stroke="url(#SVGID_1_)" stroke-width="3" stroke-miterlimit="10" d="M331.104,177.083
				c0,0-0.057-0.147-0.145-0.418c-0.039-0.136-0.094-0.3-0.148-0.5c-0.044-0.206-0.086-0.449-0.121-0.731
				c-0.063-0.558-0.072-1.227,0.024-2.013c0.116-0.771,0.326-1.657,0.716-2.554c0.176-0.465,0.432-0.895,0.679-1.369
				c0.271-0.445,0.571-0.907,0.907-1.346c0.671-0.887,1.474-1.743,2.383-2.505c1.811-1.55,4.021-2.758,6.31-3.583
				c1.146-0.419,2.314-0.733,3.473-0.967c1.16-0.237,2.313-0.366,3.424-0.433c1.113-0.064,2.19-0.033,3.204,0.036
				c0.508,0.057,0.997,0.091,1.47,0.163c0.474,0.082,0.929,0.146,1.362,0.236c0.87,0.189,1.654,0.397,2.339,0.629
				c0.688,0.219,1.276,0.472,1.756,0.678c0.478,0.212,0.845,0.43,1.095,0.556c0.251,0.135,0.381,0.221,0.381,0.221
				s-0.576,0.249-1.542,0.585c-0.483,0.184-1.064,0.358-1.718,0.583c-0.644,0.203-1.372,0.431-2.165,0.68
				c-1.515,0.462-3.282,1.002-5.177,1.58c-1.839,0.576-3.757,1.16-5.603,1.838c-1.852,0.656-3.632,1.39-5.229,2.17
				c-0.803,0.387-1.561,0.787-2.25,1.213c-0.701,0.416-1.342,0.85-1.907,1.298c-0.588,0.438-1.075,0.903-1.525,1.346
				c-0.43,0.447-0.798,0.892-1.091,1.271c-0.137,0.188-0.267,0.365-0.392,0.524c-0.113,0.169-0.198,0.323-0.273,0.443
				C331.197,176.955,331.104,177.083,331.104,177.083z"/>
		</g>
		<path fill="none" stroke="#010101" stroke-width="8" stroke-miterlimit="10" d="M341.985,178.658"/>
		<g>
			
				<linearGradient id="SVGID_2_" gradientUnits="userSpaceOnUse" x1="478.3594" y1="1092.3105" x2="540.0732" y2="1092.3105" gradientTransform="matrix(1 0 0 -1 0.105 1347.3828)">
				<stop  offset="0.8065" style="stop-color:#FFFFFF"/>
				<stop  offset="1" style="stop-color:#FFFFFF"/>
			</linearGradient>
			
				<linearGradient id="SVGID_3_" gradientUnits="userSpaceOnUse" x1="477.8594" y1="1092.3105" x2="540.5732" y2="1092.3105" gradientTransform="matrix(1 0 0 -1 0.105 1347.3828)">
				<stop  offset="0.8065" style="stop-color:#FFFFFF"/>
				<stop  offset="1" style="stop-color:#FFFFFF"/>
			</linearGradient>
			<path fill="url(#SVGID_2_)" stroke="url(#SVGID_3_)" stroke-miterlimit="10" d="M540.178,255.071
				c0,18.261-13.816,33.059-30.857,33.059c-17.039,0-30.857-14.798-30.857-33.059c0-18.257,13.818-33.058,30.857-33.058
				C526.362,222.011,540.178,236.813,540.178,255.071z M509.324,228.19c-13.855,0-25.089,12.035-25.089,26.881
				c0,14.847,11.234,26.879,25.089,26.879c13.852,0,25.086-12.032,25.086-26.879C534.41,240.225,523.176,228.19,509.324,228.19z"/>
			
				<linearGradient id="SVGID_4_" gradientUnits="userSpaceOnUse" x1="494.7363" y1="1101.5117" x2="501.5918" y2="1101.5117" gradientTransform="matrix(1 0 0 -1 0.105 1347.3828)">
				<stop  offset="0.8065" style="stop-color:#FFFFFF"/>
				<stop  offset="1" style="stop-color:#FFFFFF"/>
			</linearGradient>
			
				<linearGradient id="SVGID_5_" gradientUnits="userSpaceOnUse" x1="494.2363" y1="1101.5117" x2="502.0918" y2="1101.5117" gradientTransform="matrix(1 0 0 -1 0.105 1347.3828)">
				<stop  offset="0.8065" style="stop-color:#FFFFFF"/>
				<stop  offset="1" style="stop-color:#FFFFFF"/>
			</linearGradient>
			<path fill="url(#SVGID_4_)" stroke="url(#SVGID_5_)" stroke-miterlimit="10" d="M501.697,245.873
				c0,2.686-1.536,4.864-3.427,4.864c-1.895,0-3.429-2.178-3.429-4.864c0-2.688,1.534-4.866,3.429-4.866
				C500.161,241.008,501.697,243.185,501.697,245.873z"/>
			
				<linearGradient id="SVGID_6_" gradientUnits="userSpaceOnUse" x1="516.2891" y1="1101.5107" x2="523.1475" y2="1101.5107" gradientTransform="matrix(1 0 0 -1 0.105 1347.3828)">
				<stop  offset="0.8065" style="stop-color:#FFFFFF"/>
				<stop  offset="1" style="stop-color:#FFFFFF"/>
			</linearGradient>
			
				<linearGradient id="SVGID_7_" gradientUnits="userSpaceOnUse" x1="515.7891" y1="1101.5107" x2="523.6475" y2="1101.5107" gradientTransform="matrix(1 0 0 -1 0.105 1347.3828)">
				<stop  offset="0.8065" style="stop-color:#FFFFFF"/>
				<stop  offset="1" style="stop-color:#FFFFFF"/>
			</linearGradient>
			
				<ellipse fill="url(#SVGID_6_)" stroke="url(#SVGID_7_)" stroke-miterlimit="10" cx="519.824" cy="245.872" rx="3.428" ry="4.865"/>
			<g>
				
					<linearGradient id="SVGID_8_" gradientUnits="userSpaceOnUse" x1="492.6025" y1="1081.334" x2="525.2862" y2="1081.334" gradientTransform="matrix(1 0 0 -1 0.105 1347.3828)">
					<stop  offset="0.8065" style="stop-color:#FFFFFF"/>
					<stop  offset="1" style="stop-color:#FFFFFF"/>
				</linearGradient>
				<path fill="url(#SVGID_8_)" d="M521.772,259.036c0,0,0.022,0.042,0.067,0.125c0.04,0.079,0.117,0.205,0.182,0.353
					c0.072,0.152,0.159,0.339,0.261,0.558c0.102,0.229,0.158,0.524,0.217,0.851c0.069,0.349,0.095,0.697,0.119,1.08
					c0.039,0.4,0.007,0.804-0.034,1.256c-0.085,0.905-0.362,1.891-0.83,2.929c-0.243,0.501-0.541,1.015-0.88,1.516
					c-0.339,0.517-0.751,0.958-1.183,1.452c-0.881,0.923-1.951,1.735-3.118,2.389c-1.171,0.651-2.43,1.133-3.723,1.441
					c-1.297,0.317-2.596,0.432-3.874,0.427c-1.284-0.009-2.512-0.2-3.688-0.482c-1.167-0.296-2.269-0.715-3.265-1.237
					c-1-0.515-1.898-1.121-2.69-1.79c-0.383-0.357-0.766-0.664-1.102-1.029c-0.331-0.373-0.654-0.704-0.937-1.071
					c-0.273-0.384-0.543-0.721-0.773-1.089c-0.223-0.375-0.439-0.71-0.613-1.067c-0.365-0.691-0.623-1.354-0.816-1.918
					c-0.194-0.555-0.286-1.08-0.367-1.393c-0.042-0.157-0.057-0.305-0.072-0.393c-0.017-0.091-0.022-0.138-0.022-0.138l0.428-0.751
					c0,0,0.418,0.196,1.155,0.536c0.372,0.159,0.813,0.375,1.336,0.58c0.519,0.216,1.113,0.436,1.755,0.684
					c0.646,0.236,1.353,0.474,2.106,0.697c0.757,0.216,1.559,0.417,2.391,0.608c0.832,0.192,1.699,0.338,2.584,0.452
					c0.886,0.095,1.789,0.176,2.689,0.167c0.897,0.011,1.797-0.008,2.666-0.125c0.872-0.111,1.719-0.274,2.512-0.514
					c0.788-0.253,1.535-0.533,2.209-0.866c0.672-0.346,1.268-0.736,1.783-1.143c0.498-0.425,0.944-0.833,1.29-1.243
					c0.18-0.2,0.336-0.396,0.471-0.588c0.14-0.188,0.263-0.361,0.356-0.523c0.101-0.163,0.19-0.308,0.269-0.434
					c0.076-0.141,0.139-0.262,0.19-0.359c0.104-0.196,0.158-0.299,0.158-0.299L521.772,259.036z"/>
			</g>
		</g>
		
			<linearGradient id="SVGID_9_" gradientUnits="userSpaceOnUse" x1="373.5439" y1="1138.5381" x2="480.4111" y2="1138.5381" gradientTransform="matrix(1 0 0 -1 0.105 1347.3828)">
			<stop  offset="0.8065" style="stop-color:#FFFFFF"/>
			<stop  offset="1" style="stop-color:#FFFFFF"/>
		</linearGradient>
		<path fill="none" stroke="url(#SVGID_9_)" stroke-width="9" stroke-miterlimit="10" d="M376.049,200.091
			c52.333,33,49.02-20.086,101.851,17.652"/>
		<g>
			
				<linearGradient id="SVGID_10_" gradientUnits="userSpaceOnUse" x1="469.272" y1="1130.9785" x2="486.5122" y2="1130.9785" gradientTransform="matrix(1 0 0 -1 0.105 1347.3828)">
				<stop  offset="0.8065" style="stop-color:#FFFFFF"/>
				<stop  offset="1" style="stop-color:#FFFFFF"/>
			</linearGradient>
			<polygon fill="url(#SVGID_10_)" points="486.617,223.371 478.146,221.854 469.377,219.662 472.891,214.214 476.703,209.438 
				481.662,216.401 			"/>
			
				<linearGradient id="SVGID_11_" gradientUnits="userSpaceOnUse" x1="463.8496" y1="1133.3701" x2="494.0934" y2="1133.3701" gradientTransform="matrix(1 0 0 -1 0.105 1347.3828)">
				<stop  offset="0.8065" style="stop-color:#FFFFFF"/>
				<stop  offset="1" style="stop-color:#FFFFFF"/>
			</linearGradient>
			<path fill="url(#SVGID_11_)" d="M486.617,223.371c-0.768,0.125-1.532,0.225-2.293,0.297c-0.76,0.073-1.516,0.129-2.27,0.168
				c-0.378,0.024-0.754,0.038-1.128,0.048c-0.377,0.009-0.753,0.031-1.125,0.032l-1.125,0.011h-0.56l-0.279-0.002h-0.035h-0.017
				h-0.005c-0.063-0.015,0.137,0.03-0.143-0.032h-0.01l-0.068-0.007l-0.14-0.011c-0.743-0.064-1.482-0.135-2.219-0.224
				c-0.738-0.077-1.472-0.168-2.204-0.274c-0.733-0.098-1.466-0.2-2.192-0.322c-0.727-0.122-1.459-0.224-2.183-0.366l-4.02-0.796
				l2.154-3.921l0.783-1.424c0.264-0.474,0.545-0.935,0.815-1.402c0.545-0.936,1.105-1.86,1.69-2.768l0.083-0.133l0.115-0.145
				c1.265-1.598,2.567-3.163,3.942-4.672l3.034-3.331l2.11,3.473l1.114,1.829l1.066,1.865c0.688,1.26,1.356,2.531,1.978,3.842
				c0.31,0.654,0.617,1.311,0.902,1.981c0.299,0.663,0.568,1.345,0.84,2.026c0.264,0.684,0.519,1.378,0.754,2.084
				C486.217,221.906,486.432,222.628,486.617,223.371z M486.617,223.371c-0.638-0.42-1.25-0.861-1.842-1.313
				c-0.59-0.454-1.159-0.923-1.722-1.398c-0.552-0.48-1.109-0.958-1.638-1.457c-0.54-0.491-1.058-0.996-1.574-1.503
				c-1.031-1.011-2.017-2.062-2.983-3.123l-1.415-1.617l-1.366-1.65l5.145,0.142c-1.166,1.674-2.402,3.292-3.682,4.878l0.199-0.276
				c-0.588,0.906-1.196,1.799-1.826,2.679c-0.314,0.44-0.619,0.886-0.941,1.321l-0.976,1.3l-1.863-4.717
				c0.704,0.215,1.398,0.469,2.098,0.704c0.7,0.233,1.393,0.49,2.087,0.747c0.694,0.252,1.385,0.518,2.072,0.796
				c0.691,0.268,1.38,0.554,2.065,0.847l0.127,0.055l0.063,0.027l0.008,0.002c-0.276-0.059-0.074-0.016-0.135-0.028l0.004,0.002
				l0.017,0.005l0.033,0.012l0.264,0.092l0.522,0.196l1.051,0.399c0.35,0.131,0.697,0.281,1.046,0.42
				c0.347,0.141,0.694,0.284,1.041,0.438c0.694,0.295,1.385,0.611,2.071,0.942C485.256,222.625,485.939,222.984,486.617,223.371z"/>
		</g>
		<g>
			<rect x="545.027" y="212.261" fill="none" width="217.461" height="143.994"/>
			<path fill="#FFFFFF" d="M592.966,282.566c0,0.304-0.071,0.561-0.208,0.767c-0.139,0.208-0.363,0.389-0.672,0.541
				c-0.309,0.15-0.74,0.263-1.291,0.341c-0.552,0.075-1.241,0.113-2.066,0.113c-0.861,0-1.568-0.038-2.119-0.113
				c-0.551-0.078-0.979-0.191-1.29-0.341c-0.312-0.151-0.535-0.332-0.671-0.541c-0.14-0.207-0.21-0.463-0.21-0.767v-29.945
				c0-2.915-0.205-5.264-0.617-7.046c-0.413-1.779-1.017-3.313-1.81-4.602c-0.792-1.287-1.815-2.273-3.072-2.955
				c-1.258-0.682-2.711-1.021-4.365-1.021c-2.135,0-4.271,0.833-6.405,2.5c-2.136,1.667-4.373,4.111-6.716,7.329v35.742
				c0,0.303-0.069,0.559-0.207,0.767c-0.137,0.208-0.361,0.388-0.671,0.539c-0.311,0.152-0.739,0.265-1.29,0.341
				c-0.553,0.075-1.26,0.115-2.119,0.115c-0.826,0-1.517-0.04-2.065-0.115c-0.552-0.076-0.992-0.189-1.318-0.341
				c-0.327-0.151-0.55-0.331-0.671-0.539c-0.122-0.208-0.182-0.463-0.182-0.767v-51.141c0-0.302,0.051-0.558,0.155-0.766
				c0.101-0.208,0.31-0.397,0.619-0.568c0.312-0.17,0.705-0.283,1.189-0.339c0.481-0.059,1.118-0.087,1.91-0.087
				c0.758,0,1.386,0.028,1.888,0.087c0.498,0.056,0.884,0.168,1.159,0.339s0.476,0.361,0.597,0.568
				c0.119,0.208,0.18,0.464,0.18,0.766v6.762c2.618-3.219,5.224-5.577,7.825-7.074c2.601-1.497,5.227-2.245,7.878-2.245
				c3.101,0,5.708,0.578,7.828,1.732c2.117,1.157,3.83,2.7,5.139,4.632c1.309,1.931,2.247,4.194,2.814,6.789
				c0.569,2.596,0.854,5.712,0.854,9.347V282.566L592.966,282.566z"/>
			<path fill="#FFFFFF" d="M615.015,214.153c0,2.198-0.379,3.694-1.138,4.488c-0.758,0.797-2.151,1.195-4.184,1.195
				c-1.995,0-3.366-0.388-4.106-1.166c-0.741-0.776-1.108-2.245-1.108-4.403c0-2.196,0.376-3.694,1.133-4.488
				c0.76-0.796,2.153-1.195,4.185-1.195c1.996,0,3.367,0.39,4.106,1.167C614.644,210.526,615.015,211.994,615.015,214.153z
				 M614.033,282.566c0,0.304-0.071,0.561-0.209,0.767c-0.138,0.208-0.36,0.389-0.67,0.541c-0.311,0.15-0.742,0.263-1.293,0.341
				c-0.551,0.075-1.257,0.113-2.118,0.113c-0.825,0-1.516-0.038-2.065-0.113c-0.552-0.078-0.988-0.191-1.317-0.341
				c-0.328-0.151-0.552-0.332-0.671-0.541c-0.122-0.207-0.182-0.463-0.182-0.767v-51.139c0-0.265,0.06-0.512,0.182-0.739
				c0.119-0.228,0.343-0.417,0.671-0.568s0.766-0.264,1.317-0.341c0.55-0.076,1.24-0.114,2.065-0.114
				c0.861,0,1.567,0.038,2.118,0.114c0.551,0.077,0.982,0.189,1.293,0.341c0.31,0.151,0.532,0.34,0.67,0.568
				c0.138,0.227,0.209,0.476,0.209,0.739V282.566z"/>
			<path fill="#FFFFFF" d="M661.891,282.625c0,0.454-0.139,0.796-0.413,1.022c-0.274,0.228-0.655,0.398-1.136,0.512
				c-0.483,0.113-1.188,0.17-2.119,0.17c-0.896,0-1.608-0.057-2.145-0.17c-0.534-0.114-0.923-0.285-1.162-0.512
				c-0.241-0.226-0.359-0.568-0.359-1.022v-5.114c-2.034,2.386-4.297,4.242-6.796,5.568c-2.496,1.325-5.139,1.988-7.929,1.988
				c-2.446,0-4.659-0.349-6.639-1.051c-1.98-0.7-3.668-1.713-5.062-3.04c-1.394-1.324-2.479-2.955-3.256-4.886
				c-0.771-1.931-1.159-4.129-1.159-6.592c0-2.878,0.532-5.378,1.601-7.5c1.066-2.122,2.599-3.884,4.599-5.284
				c1.996-1.401,4.441-2.452,7.334-3.153c2.893-0.7,6.146-1.052,9.764-1.052h6.403v-3.977c0-1.97-0.188-3.712-0.567-5.227
				c-0.379-1.515-0.991-2.774-1.834-3.779c-0.843-1.003-1.938-1.761-3.279-2.273c-1.342-0.513-2.998-0.767-4.96-0.767
				c-2.099,0-3.986,0.274-5.656,0.824c-1.67,0.55-3.134,1.155-4.39,1.817c-1.258,0.663-2.308,1.27-3.151,1.818
				c-0.844,0.55-1.473,0.823-1.886,0.823c-0.276,0-0.516-0.074-0.722-0.226c-0.208-0.152-0.388-0.377-0.545-0.68
				c-0.152-0.305-0.267-0.692-0.334-1.167c-0.071-0.472-0.104-0.993-0.104-1.562c0-0.946,0.06-1.694,0.181-2.246
				c0.12-0.548,0.414-1.068,0.879-1.561c0.463-0.493,1.265-1.07,2.399-1.735c1.138-0.661,2.445-1.267,3.928-1.818
				c1.48-0.548,3.097-1.002,4.856-1.363c1.755-0.361,3.528-0.539,5.318-0.539c3.341,0,6.184,0.417,8.524,1.25
				c2.342,0.833,4.234,2.055,5.683,3.665c1.445,1.611,2.494,3.609,3.149,5.995c0.653,2.387,0.98,5.171,0.98,8.353v34.491H661.891z
				 M653.42,259.271h-7.283c-2.345,0-4.373,0.218-6.097,0.652c-1.724,0.437-3.152,1.08-4.289,1.932
				c-1.134,0.854-1.971,1.875-2.505,3.07c-0.534,1.193-0.799,2.566-0.799,4.118c0,2.654,0.763,4.766,2.298,6.337
				c1.532,1.572,3.678,2.358,6.432,2.358c2.237,0,4.313-0.625,6.223-1.876c1.913-1.249,3.919-3.162,6.021-5.737V259.271
				L653.42,259.271z"/>
		</g>
		<path fill="none" stroke="#FFFFFF" stroke-width="12" stroke-linecap="round" stroke-miterlimit="10" d="M377.709,201.008"/>
		<path fill="none" stroke="#FFFFFF" stroke-width="12" stroke-linecap="round" stroke-miterlimit="10" d="M361.762,191.782"/>
	</g>
	<g>
	</g>
	<g>
	</g>
	<path opacity="0.4" fill="#FFFFFF" stroke="#FFFFFF" stroke-miterlimit="10" d="M119.542,252.375
		c11.614-2.216,20.152-9.514,20.152-18.201v-63.095c0-8.688-8.538-15.989-20.152-18.205V252.375z"/>
	<path opacity="0.2" fill="#FFFFFF" stroke="#FFFFFF" stroke-miterlimit="10" d="M-20.751,383.426h184.41
		c2.271,0,4.487-0.154,6.631-0.438l-45.532-58.279l45.532-58.278c-2.144-0.282-4.36-0.435-6.631-0.435h-184.41V383.426z"/>
	
		<rect x="-23.094" y="152.167" opacity="0.4" fill="#FFFFFF" stroke="#FFFFFF" stroke-miterlimit="10" width="120.445" height="100.916"/>
	<path opacity="0.6" fill="#FFFFFF" stroke="#FFFFFF" stroke-miterlimit="10" d="M-18.339,139.254h84.486
		c11.942,0,21.625-8.465,21.625-18.909V57.244c0-10.443-9.683-18.911-21.625-18.911h-84.486V139.254z"/>
	<g>
	</g>
	<g>
	</g>
	<path opacity="0.4" fill="#FFFFFF" stroke="#FFFFFF" stroke-miterlimit="10" d="M852.21,168.063
		c-11.614,2.216-20.151,9.513-20.151,18.201v63.096c0,8.687,8.537,15.988,20.151,18.204V168.063z"/>
	<path opacity="0.2" fill="#FFFFFF" stroke="#FFFFFF" stroke-miterlimit="10" d="M986.257,37.012h-184.41
		c-2.271,0-4.487,0.154-6.632,0.438l45.532,58.279l-45.532,58.278c2.145,0.282,4.36,0.436,6.632,0.436l184.41,0V37.012z"/>
	
		<rect x="874.4" y="167.355" opacity="0.4" fill="#FFFFFF" stroke="#FFFFFF" stroke-miterlimit="10" width="120.445" height="100.916"/>
	<path opacity="0.6" fill="#FFFFFF" stroke="#FFFFFF" stroke-miterlimit="10" d="M990.872,281.184h-84.486
		c-11.941,0-21.625,8.465-21.625,18.909v63.102c0,10.442,9.684,18.911,21.625,18.911h84.486V281.184z"/>
	<g>
	</g>
	
		<linearGradient id="SVGID_12_" gradientUnits="userSpaceOnUse" x1="358.5112" y1="198.8926" x2="389.3501" y2="198.8926" gradientTransform="matrix(1.0211 0.0582 -0.0555 0.9746 2.9372 -16.9213)">
		<stop  offset="0.8065" style="stop-color:#FFFFFF"/>
		<stop  offset="1" style="stop-color:#FFFFFF"/>
	</linearGradient>
	
		<line fill="none" stroke="url(#SVGID_12_)" stroke-width="9" stroke-linecap="round" stroke-miterlimit="10" x1="362.883" y1="192.338" x2="384.53" y2="205.034"/>
	
		<linearGradient id="SVGID_13_" gradientUnits="userSpaceOnUse" x1="394.5405" y1="208.1899" x2="394.5405" y2="208.1899" gradientTransform="matrix(1.0211 0.0582 -0.0555 0.9746 2.9372 -16.9213)">
		<stop  offset="0.8065" style="stop-color:#FFFFFF"/>
		<stop  offset="1" style="stop-color:#FFFFFF"/>
	</linearGradient>
	<path fill="none" stroke="url(#SVGID_13_)" stroke-width="9" stroke-linecap="round" stroke-miterlimit="10" d="M394.234,208.947"
		/>
	
		<linearGradient id="SVGID_14_" gradientUnits="userSpaceOnUse" x1="355.5503" y1="196.2026" x2="355.5503" y2="196.2026" gradientTransform="matrix(1.0211 0.0582 -0.0555 0.9746 2.9372 -16.9213)">
		<stop  offset="0.8065" style="stop-color:#FFFFFF"/>
		<stop  offset="1" style="stop-color:#FFFFFF"/>
	</linearGradient>
	<path fill="none" stroke="url(#SVGID_14_)" stroke-width="9" stroke-linecap="round" stroke-miterlimit="10" d="M355.088,194.996"
		/>
	<g>
	</g>
	<g>
	</g>
	<g>
	</g>
	<g>
	</g>
	<g>
	</g>
	<g>
	</g>
</g>
</svg>
