<?xml version="1.0" encoding="utf-8"?>
<!-- Generator: Adobe Illustrator 16.0.0, SVG Export Plug-In . SVG Version: 6.00 Build 0)  -->
<!DOCTYPE svg PUBLIC "-//W3C//DTD SVG 1.0//EN" "http://www.w3.org/TR/2001/REC-SVG-20010904/DTD/svg10.dtd">
<svg version="1.0" xmlns="http://www.w3.org/2000/svg" xmlns:xlink="http://www.w3.org/1999/xlink" x="0px" y="0px"
	 width="812.39px" height="309.39px" viewBox="0 0 812.39 309.39" enable-background="new 0 0 812.39 309.39" xml:space="preserve">
<g id="Layer_1">
	<g>
		<path d="M342.307,146.679c0,0.492-0.098,0.906-0.293,1.243c-0.196,0.338-0.544,0.63-1.046,0.875s-1.159,0.429-1.967,0.552
			c-0.81,0.123-1.8,0.185-2.972,0.185c-1.285,0-2.331-0.062-3.14-0.185c-0.81-0.124-1.452-0.308-1.926-0.552
			c-0.475-0.245-0.795-0.537-0.962-0.875c-0.167-0.337-0.251-0.751-0.251-1.243V135.72c-4.298,5.219-8.54,9.025-12.725,11.419
			c-4.186,2.395-8.429,3.591-12.726,3.591c-5.023,0-9.251-0.921-12.684-2.763s-6.21-4.343-8.33-7.505
			c-2.122-3.161-3.642-6.845-4.563-11.051c-0.921-4.205-1.381-9.315-1.381-15.333V63.796c0-0.491,0.097-0.905,0.293-1.243
			c0.195-0.336,0.572-0.645,1.13-0.921c0.557-0.276,1.283-0.46,2.177-0.552c0.892-0.092,2.009-0.138,3.349-0.138
			s2.456,0.046,3.349,0.138c0.893,0.092,1.604,0.276,2.135,0.552c0.53,0.276,0.906,0.584,1.13,0.921
			c0.223,0.338,0.335,0.752,0.335,1.243v48.256c0,4.851,0.321,8.734,0.963,11.65c0.641,2.917,1.618,5.403,2.93,7.459
			c1.311,2.058,2.972,3.653,4.981,4.789c2.009,1.137,4.354,1.704,7.032,1.704c3.46,0,6.907-1.35,10.34-4.052
			c3.432-2.701,7.074-6.661,10.925-11.88V63.796c0-0.491,0.097-0.905,0.293-1.243c0.195-0.336,0.572-0.645,1.13-0.921
			c0.557-0.276,1.269-0.46,2.135-0.552c0.865-0.092,1.995-0.138,3.391-0.138c1.339,0,2.456,0.046,3.349,0.138
			c0.893,0.092,1.591,0.276,2.093,0.552s0.879,0.584,1.13,0.921c0.251,0.338,0.376,0.752,0.376,1.243V146.679z"/>
		<path d="M428.4,101.646c0,2.395-0.547,4.098-1.641,5.111c-1.093,1.013-2.34,1.52-3.742,1.52h-49.621
			c0,4.604,0.42,8.749,1.261,12.432c0.841,3.684,2.243,6.847,4.207,9.486c1.962,2.64,4.514,4.667,7.655,6.078
			c3.141,1.413,6.982,2.118,11.525,2.118c3.59,0,6.786-0.322,9.591-0.967c2.804-0.645,5.229-1.366,7.276-2.164
			c2.048-0.797,3.73-1.52,5.049-2.164c1.318-0.645,2.314-0.967,2.988-0.967c0.392,0,0.741,0.108,1.05,0.322
			c0.309,0.216,0.547,0.539,0.716,0.967c0.167,0.43,0.294,1.029,0.377,1.796c0.084,0.768,0.127,1.704,0.127,2.809
			c0,0.799-0.028,1.489-0.083,2.072c-0.056,0.584-0.126,1.105-0.21,1.565c-0.083,0.46-0.223,0.875-0.418,1.243
			c-0.196,0.368-0.447,0.722-0.754,1.059c-0.307,0.338-1.213,0.891-2.721,1.658c-1.507,0.769-3.461,1.52-5.86,2.256
			c-2.4,0.737-5.177,1.396-8.33,1.98c-3.153,0.583-6.517,0.875-10.089,0.875c-6.195,0-11.624-0.952-16.283-2.854
			c-4.661-1.902-8.581-4.727-11.763-8.473c-3.181-3.744-5.582-8.441-7.2-14.09c-1.62-5.648-2.428-12.217-2.428-19.708
			c0-7.121,0.837-13.521,2.511-19.201c1.675-5.678,4.088-10.499,7.242-14.458c3.152-3.96,6.962-6.999,11.428-9.117
			c4.464-2.118,9.46-3.177,14.986-3.177c5.915,0,10.953,1.045,15.111,3.131c4.156,2.088,7.576,4.896,10.256,8.426
			c2.679,3.531,4.646,7.675,5.902,12.433c1.256,4.758,1.883,9.839,1.883,15.241V101.646z M414.504,97.133
			c0.167-7.98-1.449-14.243-4.845-18.787c-3.397-4.543-8.438-6.815-15.119-6.815c-3.426,0-6.431,0.707-9.013,2.118
			c-2.583,1.413-4.746,3.285-6.487,5.618c-1.741,2.334-3.089,5.051-4.043,8.15c-0.955,3.101-1.487,6.34-1.6,9.715H414.504z"/>
		<path d="M489.13,69.229c0,1.351-0.027,2.486-0.082,3.407c-0.057,0.921-0.168,1.644-0.336,2.165
			c-0.168,0.522-0.377,0.921-0.627,1.197c-0.252,0.276-0.602,0.414-1.047,0.414c-0.447,0-0.992-0.138-1.633-0.414
			c-0.643-0.276-1.369-0.553-2.178-0.829s-1.715-0.537-2.721-0.783c-1.004-0.245-2.092-0.368-3.264-0.368
			c-1.396,0-2.764,0.308-4.104,0.921c-1.34,0.614-2.75,1.627-4.228,3.039c-1.479,1.413-3.028,3.285-4.646,5.617
			c-1.619,2.334-3.404,5.189-5.357,8.565v54.519c0,0.492-0.113,0.906-0.336,1.243c-0.223,0.338-0.586,0.63-1.088,0.875
			s-1.201,0.429-2.093,0.552c-0.894,0.123-2.038,0.185-3.433,0.185c-1.34,0-2.457-0.062-3.349-0.185
			c-0.894-0.124-1.605-0.308-2.136-0.552s-0.893-0.537-1.088-0.875c-0.196-0.337-0.293-0.751-0.293-1.243V63.796
			c0-0.491,0.084-0.905,0.252-1.243c0.167-0.336,0.502-0.645,1.004-0.921s1.144-0.46,1.926-0.552
			c0.781-0.092,1.813-0.138,3.098-0.138c1.227,0,2.246,0.046,3.056,0.138c0.809,0.092,1.437,0.276,1.884,0.552
			c0.445,0.276,0.767,0.584,0.963,0.921c0.195,0.338,0.293,0.752,0.293,1.243V75.86c2.064-3.315,4.004-6.017,5.818-8.104
			c1.813-2.086,3.529-3.729,5.148-4.927c1.618-1.197,3.224-2.026,4.813-2.486c1.592-0.46,3.195-0.691,4.814-0.691
			c0.725,0,1.549,0.046,2.471,0.138c0.92,0.092,1.883,0.262,2.887,0.506c1.006,0.246,1.912,0.522,2.723,0.829
			c0.809,0.308,1.381,0.614,1.715,0.921c0.336,0.308,0.559,0.599,0.67,0.875c0.111,0.276,0.209,0.63,0.293,1.059
			c0.084,0.43,0.139,1.059,0.168,1.888C489.116,66.697,489.13,67.818,489.13,69.229z"/>
		<path d="M516.828,35.8c0,3.562-0.615,5.986-1.842,7.275c-1.229,1.29-3.489,1.934-6.781,1.934c-3.238,0-5.456-0.629-6.656-1.888
			c-1.2-1.258-1.8-3.638-1.8-7.137c0-3.56,0.613-5.986,1.842-7.275c1.228-1.29,3.487-1.934,6.781-1.934
			c3.236,0,5.455,0.63,6.656,1.888C516.228,29.922,516.828,32.3,516.828,35.8z M515.237,146.679c0,0.492-0.112,0.906-0.335,1.243
			c-0.224,0.338-0.586,0.63-1.088,0.875c-0.503,0.245-1.201,0.429-2.094,0.552c-0.894,0.123-2.038,0.185-3.433,0.185
			c-1.339,0-2.456-0.062-3.349-0.185c-0.894-0.124-1.604-0.308-2.135-0.552c-0.531-0.245-0.894-0.537-1.088-0.875
			c-0.196-0.337-0.293-0.751-0.293-1.243V63.796c0-0.429,0.097-0.829,0.293-1.197c0.194-0.369,0.557-0.675,1.088-0.921
			c0.53-0.244,1.241-0.429,2.135-0.552c0.893-0.123,2.01-0.184,3.349-0.184c1.395,0,2.539,0.062,3.433,0.184
			c0.893,0.124,1.591,0.308,2.094,0.552c0.502,0.246,0.864,0.553,1.088,0.921c0.223,0.368,0.335,0.768,0.335,1.197V146.679z"/>
		<path d="M389.525,296.705c0,0.492-0.112,0.907-0.335,1.244c-0.224,0.338-0.586,0.63-1.088,0.874
			c-0.502,0.245-1.201,0.429-2.093,0.553c-0.894,0.122-2.009,0.185-3.349,0.185c-1.396,0-2.54-0.063-3.432-0.185
			c-0.894-0.124-1.605-0.308-2.135-0.553c-0.531-0.244-0.908-0.536-1.13-0.874c-0.224-0.337-0.335-0.752-0.335-1.244v-50.374
			c0-3.5-0.28-6.691-0.837-9.578c-0.559-2.885-1.452-5.371-2.679-7.459c-1.229-2.086-2.792-3.684-4.688-4.789
			c-1.898-1.105-4.131-1.657-6.698-1.657c-3.181,0-6.377,1.351-9.586,4.052c-3.21,2.703-6.739,6.662-10.59,11.88v57.926
			c0,0.492-0.113,0.907-0.335,1.244c-0.224,0.338-0.601,0.63-1.13,0.874c-0.531,0.245-1.243,0.429-2.135,0.553
			c-0.894,0.122-2.009,0.185-3.349,0.185c-1.284,0-2.386-0.063-3.307-0.185c-0.921-0.124-1.647-0.308-2.177-0.553
			c-0.531-0.244-0.894-0.536-1.088-0.874c-0.196-0.337-0.293-0.752-0.293-1.244v-50.374c0-3.5-0.308-6.691-0.921-9.578
			c-0.615-2.885-1.536-5.371-2.763-7.459c-1.229-2.086-2.777-3.684-4.646-4.789c-1.871-1.105-4.089-1.657-6.656-1.657
			c-3.182,0-6.392,1.351-9.628,4.052c-3.238,2.703-6.754,6.662-10.549,11.88v57.926c0,0.492-0.112,0.907-0.335,1.244
			c-0.224,0.338-0.586,0.63-1.088,0.874c-0.502,0.245-1.201,0.429-2.093,0.553c-0.894,0.122-2.038,0.185-3.433,0.185
			c-1.339,0-2.457-0.063-3.349-0.185c-0.894-0.124-1.605-0.308-2.135-0.553c-0.531-0.244-0.893-0.536-1.088-0.874
			c-0.196-0.337-0.293-0.752-0.293-1.244v-82.883c0-0.491,0.084-0.905,0.251-1.243c0.167-0.336,0.502-0.645,1.004-0.921
			s1.144-0.46,1.926-0.552c0.781-0.093,1.813-0.139,3.098-0.139c1.227,0,2.246,0.046,3.056,0.139
			c0.809,0.092,1.437,0.275,1.884,0.552c0.446,0.276,0.767,0.585,0.963,0.921c0.195,0.338,0.293,0.752,0.293,1.243v10.959
			c4.241-5.218,8.357-9.039,12.349-11.466c3.99-2.424,8.022-3.637,12.098-3.637c3.125,0,5.93,0.399,8.414,1.197
			c2.483,0.799,4.674,1.919,6.572,3.361c1.896,1.443,3.516,3.162,4.855,5.156c1.34,1.996,2.456,4.223,3.349,6.678
			c2.512-3.008,4.897-5.557,7.158-7.645c2.26-2.086,4.437-3.775,6.53-5.064c2.093-1.289,4.13-2.225,6.112-2.809
			c1.98-0.584,3.977-0.875,5.986-0.875c4.856,0,8.929,0.937,12.223,2.809c3.292,1.873,5.958,4.374,7.996,7.506
			c2.037,3.131,3.487,6.8,4.353,11.004c0.865,4.207,1.298,8.643,1.298,13.308V296.705z"/>
	</g>
	<path stroke="#000000" stroke-width="0.7" stroke-miterlimit="10" d="M257.149,83.908c0,44.566-30.388,80.698-67.869,80.698
		s-67.869-36.132-67.869-80.698c0-44.566,30.388-80.698,67.869-80.698S257.149,39.342,257.149,83.908z M189.28,18.292
		c-30.475,0-55.181,29.379-55.181,65.617c0,36.242,24.706,65.619,55.181,65.619c30.477,0,55.181-29.377,55.181-65.619
		C244.461,47.67,219.756,18.292,189.28,18.292z"/>
	<ellipse cx="163.085" cy="60.205" rx="8.335" ry="13.098"/>
	<ellipse cx="213.094" cy="60.205" rx="8.335" ry="13.098"/>
	<g>
		<path d="M171.321,125.755c0,0-0.201-0.25-0.503-0.708c-0.145-0.233-0.336-0.501-0.538-0.854c-0.191-0.384-0.371-0.844-0.545-1.39
			c-0.343-1.066-0.612-2.335-0.672-3.886c-0.032-1.515,0.14-3.284,0.655-5.088c0.233-0.935,0.611-1.796,0.982-2.76
			c0.41-0.897,0.902-1.824,1.441-2.713c1.104-1.785,2.468-3.502,4.049-5.003c3.123-3.1,7.062-5.385,11.114-6.846
			c2.034-0.737,4.106-1.244,6.154-1.573c2.05-0.329,4.076-0.459,6.034-0.376c1.95,0.035,3.829,0.29,5.583,0.637
			c0.879,0.221,1.723,0.377,2.537,0.64c0.813,0.278,1.589,0.5,2.329,0.801c0.739,0.322,1.438,0.592,2.097,0.921
			c0.658,0.343,1.274,0.644,1.846,0.994c1.145,0.66,2.11,1.36,2.889,1.963c0.78,0.596,1.366,1.213,1.766,1.567
			c0.398,0.381,0.603,0.623,0.603,0.623l-0.095,1.196c0,0-0.885-0.019-2.434-0.052c-0.774,0.014-1.713-0.009-2.789,0.038
			c-1.076,0.028-2.286,0.102-3.605,0.164c-1.318,0.087-2.743,0.208-4.244,0.385c-1.5,0.186-3.072,0.432-4.691,0.71
			c-1.617,0.292-3.28,0.64-4.943,1.084c-1.663,0.441-3.336,0.95-4.966,1.563c-3.286,1.149-6.446,2.657-9.127,4.461
			c-1.343,0.898-2.586,1.842-3.668,2.837c-1.096,0.982-2.03,2.016-2.782,3.043c-0.774,1.016-1.353,2.03-1.833,2.947
			c-0.446,0.93-0.763,1.787-0.969,2.492c-0.093,0.353-0.176,0.668-0.249,0.942c-0.059,0.29-0.095,0.551-0.131,0.755
			c-0.069,0.413-0.105,0.632-0.105,0.632L171.321,125.755z"/>
	</g>
	<path fill="none" stroke="#000000" stroke-width="8" stroke-miterlimit="10" d="M189.552,128.383"/>
	<g>
		<path fill="#1F977A" stroke="#1F977A" stroke-miterlimit="10" d="M507.518,252.227c0,29.595-22.394,53.583-50.01,53.583
			c-27.617,0-50.008-23.988-50.008-53.583c0-29.589,22.391-53.579,50.008-53.579C485.124,198.647,507.518,222.638,507.518,252.227z
			 M457.508,208.661c-22.453,0-40.66,19.505-40.66,43.565c0,24.064,18.207,43.567,40.66,43.567
			c22.454,0,40.659-19.503,40.659-43.567C498.167,228.166,479.962,208.661,457.508,208.661z"/>
		<path fill="#1F977A" stroke="#1F977A" stroke-miterlimit="10" d="M445.15,237.319c0,4.355-2.488,7.884-5.553,7.884
			c-3.07,0-5.561-3.528-5.561-7.884s2.49-7.886,5.561-7.886C442.662,229.434,445.15,232.964,445.15,237.319z"/>
		<ellipse fill="#1F977A" stroke="#1F977A" stroke-miterlimit="10" cx="474.528" cy="237.319" rx="5.557" ry="7.884"/>
		<g>
			<path fill="#1F977A" d="M477.686,258.653c0,0,0.037,0.068,0.108,0.2c0.067,0.13,0.19,0.334,0.296,0.575
				c0.114,0.246,0.256,0.549,0.422,0.904c0.166,0.371,0.258,0.85,0.354,1.379c0.11,0.563,0.152,1.13,0.192,1.751
				c0.063,0.648,0.014,1.303-0.055,2.036c-0.137,1.468-0.588,3.065-1.346,4.747c-0.394,0.812-0.876,1.644-1.426,2.456
				c-0.549,0.839-1.221,1.556-1.919,2.354c-1.428,1.496-3.159,2.809-5.054,3.872c-1.896,1.054-3.939,1.835-6.033,2.335
				c-2.098,0.514-4.205,0.7-6.278,0.694c-2.077-0.016-4.071-0.326-5.976-0.783c-1.892-0.48-3.676-1.158-5.291-2.004
				c-1.62-0.836-3.079-1.819-4.359-2.903c-0.623-0.576-1.242-1.074-1.786-1.665c-0.535-0.606-1.062-1.141-1.519-1.74
				c-0.446-0.62-0.881-1.168-1.252-1.763c-0.363-0.608-0.711-1.151-0.996-1.731c-0.59-1.118-1.01-2.195-1.32-3.107
				c-0.316-0.901-0.465-1.749-0.597-2.258c-0.065-0.256-0.091-0.493-0.117-0.636c-0.023-0.147-0.035-0.224-0.035-0.224l0.693-1.217
				c0,0,0.682,0.316,1.873,0.869c0.604,0.257,1.319,0.604,2.168,0.938c0.841,0.35,1.803,0.706,2.844,1.11
				c1.049,0.381,2.193,0.767,3.415,1.13c1.226,0.35,2.526,0.676,3.873,0.986c1.349,0.311,2.757,0.548,4.189,0.731
				c1.436,0.155,2.897,0.286,4.354,0.27c1.455,0.019,2.913-0.014,4.324-0.202c1.411-0.181,2.786-0.445,4.071-0.835
				c1.278-0.405,2.487-0.861,3.585-1.401c1.085-0.561,2.051-1.193,2.886-1.853c0.804-0.69,1.531-1.349,2.089-2.016
				c0.293-0.322,0.547-0.641,0.761-0.952c0.23-0.304,0.43-0.586,0.58-0.849c0.163-0.264,0.31-0.499,0.437-0.704
				c0.121-0.229,0.224-0.423,0.308-0.581c0.167-0.315,0.256-0.483,0.256-0.483L477.686,258.653z"/>
		</g>
	</g>
	<linearGradient id="SVGID_1_" gradientUnits="userSpaceOnUse" x1="223.2168" y1="171.1934" x2="416.748" y2="171.1934">
		<stop  offset="0.1237" style="stop-color:#000000"/>
		<stop  offset="0.1842" style="stop-color:#232424"/>
		<stop  offset="0.2922" style="stop-color:#434948"/>
		<stop  offset="0.4352" style="stop-color:#546561"/>
		<stop  offset="0.6079" style="stop-color:#568072"/>
		<stop  offset="0.8039" style="stop-color:#21977A"/>
		<stop  offset="0.8065" style="stop-color:#1F977A"/>
	</linearGradient>
	<path fill="none" stroke="url(#SVGID_1_)" stroke-width="12" stroke-linecap="round" stroke-miterlimit="10" d="M229.217,148.053
		c92.168,90.364,95.903-14.881,181.531,46.281"/>
	<g>
		<polygon fill="#1F977A" points="422.338,202.469 408.607,200.013 394.395,196.46 400.09,187.631 406.269,179.892 414.306,191.176 
					"/>
		<path fill="#1F977A" d="M422.338,202.469c-1.247,0.204-2.486,0.366-3.718,0.483c-1.232,0.119-2.459,0.209-3.681,0.271
			c-0.612,0.04-1.222,0.063-1.83,0.08c-0.607,0.017-1.219,0.049-1.824,0.052l-1.819,0.019l-0.908,0.001l-0.453-0.007l-0.057-0.001
			h-0.028h-0.007c-0.104-0.021,0.222,0.049-0.233-0.049l-0.014-0.001l-0.112-0.011l-0.226-0.02
			c-1.203-0.102-2.402-0.217-3.595-0.361c-1.196-0.126-2.388-0.273-3.573-0.445c-1.189-0.158-2.376-0.322-3.555-0.522
			c-1.179-0.197-2.365-0.362-3.536-0.594l-6.514-1.288l3.492-6.355l1.269-2.308c0.427-0.766,0.882-1.515,1.321-2.272
			c0.88-1.516,1.79-3.013,2.736-4.486l0.139-0.216l0.185-0.233c2.047-2.59,4.161-5.126,6.389-7.572l4.916-5.399l3.423,5.627
			l1.805,2.967l1.728,3.022c1.113,2.043,2.197,4.103,3.205,6.226c0.501,1.061,0.999,2.123,1.463,3.21
			c0.482,1.074,0.918,2.182,1.359,3.284c0.43,1.111,0.842,2.235,1.224,3.38C421.688,200.098,422.036,201.267,422.338,202.469z
			 M422.338,202.469c-1.037-0.68-2.027-1.393-2.985-2.127c-0.956-0.737-1.883-1.495-2.791-2.266c-0.897-0.779-1.8-1.554-2.656-2.361
			c-0.875-0.795-1.716-1.614-2.553-2.436c-1.671-1.639-3.268-3.342-4.834-5.06l-2.291-2.621l-2.215-2.675l8.339,0.229
			c-1.892,2.714-3.896,5.337-5.969,7.907l0.323-0.449c-0.952,1.47-1.94,2.916-2.959,4.343c-0.51,0.713-1.004,1.436-1.526,2.141
			l-1.579,2.106l-3.021-7.643c1.142,0.347,2.267,0.76,3.399,1.141c1.135,0.377,2.26,0.791,3.383,1.211
			c1.127,0.406,2.247,0.837,3.362,1.288c1.12,0.434,2.232,0.896,3.342,1.373l0.208,0.088l0.104,0.044l0.013,0.006
			c-0.45-0.096-0.121-0.025-0.22-0.046l0.007,0.002l0.027,0.01l0.053,0.019l0.427,0.151l0.852,0.316l1.7,0.646
			c0.567,0.213,1.129,0.456,1.693,0.682c0.565,0.228,1.129,0.46,1.689,0.709c1.124,0.482,2.243,0.992,3.357,1.53
			C420.133,201.264,421.239,201.845,422.338,202.469z"/>
	</g>
	<g>
		<rect x="514.5" y="182.845" fill="none" width="352.443" height="233.375"/>
		<path d="M592.194,296.791c0,0.492-0.112,0.907-0.335,1.244c-0.224,0.338-0.586,0.63-1.088,0.874
			c-0.503,0.245-1.201,0.429-2.094,0.553c-0.894,0.122-2.009,0.185-3.349,0.185c-1.396,0-2.54-0.063-3.433-0.185
			c-0.894-0.124-1.591-0.308-2.093-0.553c-0.502-0.244-0.866-0.536-1.088-0.874c-0.225-0.337-0.335-0.752-0.335-1.244v-48.532
			c0-4.727-0.335-8.533-1.005-11.42c-0.67-2.885-1.647-5.371-2.931-7.459c-1.284-2.086-2.944-3.684-4.981-4.789
			c-2.038-1.105-4.395-1.657-7.074-1.657c-3.461,0-6.921,1.351-10.381,4.052c-3.462,2.703-7.089,6.662-10.884,11.88v57.926
			c0,0.492-0.112,0.907-0.335,1.244c-0.224,0.338-0.586,0.63-1.088,0.874c-0.503,0.245-1.201,0.429-2.094,0.553
			c-0.894,0.122-2.038,0.185-3.433,0.185c-1.339,0-2.456-0.063-3.349-0.185c-0.894-0.124-1.604-0.308-2.135-0.553
			c-0.531-0.244-0.894-0.536-1.088-0.874c-0.196-0.337-0.293-0.752-0.293-1.244v-82.883c0-0.491,0.083-0.905,0.251-1.243
			c0.167-0.336,0.502-0.645,1.005-0.921c0.502-0.276,1.143-0.46,1.925-0.552c0.781-0.093,1.813-0.139,3.098-0.139
			c1.228,0,2.246,0.046,3.056,0.139c0.809,0.092,1.437,0.275,1.884,0.552c0.446,0.276,0.767,0.585,0.963,0.921
			c0.195,0.338,0.293,0.752,0.293,1.243v10.959c4.241-5.218,8.469-9.039,12.684-11.466c4.214-2.424,8.469-3.637,12.768-3.637
			c5.023,0,9.251,0.937,12.684,2.809c3.433,1.873,6.209,4.374,8.33,7.506c2.121,3.131,3.642,6.8,4.563,11.004
			c0.922,4.207,1.382,9.256,1.382,15.149V296.791z"/>
		<path d="M627.93,185.912c0,3.562-0.615,5.986-1.842,7.275c-1.229,1.29-3.489,1.935-6.781,1.935c-3.238,0-5.456-0.629-6.656-1.889
			c-1.2-1.258-1.8-3.637-1.8-7.137c0-3.56,0.613-5.986,1.842-7.275c1.228-1.29,3.487-1.934,6.781-1.934
			c3.236,0,5.455,0.63,6.656,1.888C627.329,180.034,627.93,182.413,627.93,185.912z M626.339,296.791
			c0,0.492-0.112,0.907-0.335,1.244c-0.224,0.338-0.586,0.63-1.088,0.874c-0.503,0.245-1.201,0.429-2.094,0.553
			c-0.894,0.122-2.038,0.185-3.433,0.185c-1.339,0-2.456-0.063-3.349-0.185c-0.894-0.124-1.604-0.308-2.135-0.553
			c-0.531-0.244-0.894-0.536-1.088-0.874c-0.196-0.337-0.293-0.752-0.293-1.244v-82.883c0-0.429,0.097-0.829,0.293-1.196
			c0.194-0.369,0.557-0.676,1.088-0.922c0.53-0.244,1.241-0.429,2.135-0.553c0.893-0.122,2.01-0.184,3.349-0.184
			c1.395,0,2.539,0.062,3.433,0.184c0.893,0.124,1.591,0.309,2.094,0.553c0.502,0.246,0.864,0.553,1.088,0.922
			c0.223,0.367,0.335,0.768,0.335,1.196V296.791z"/>
		<path d="M703.903,296.884c0,0.736-0.224,1.289-0.67,1.657c-0.447,0.368-1.061,0.645-1.842,0.829
			c-0.782,0.185-1.925,0.276-3.433,0.276c-1.451,0-2.609-0.092-3.474-0.276c-0.866-0.185-1.494-0.461-1.884-0.829
			c-0.392-0.368-0.586-0.921-0.586-1.657v-8.288c-3.294,3.867-6.964,6.876-11.01,9.024c-4.047,2.148-8.33,3.224-12.851,3.224
			c-3.964,0-7.55-0.568-10.759-1.704c-3.21-1.135-5.943-2.777-8.204-4.927c-2.261-2.148-4.019-4.789-5.274-7.92
			s-1.884-6.691-1.884-10.683c0-4.665,0.865-8.717,2.596-12.156c1.729-3.438,4.213-6.293,7.451-8.564
			c3.236-2.271,7.199-3.975,11.888-5.111c4.688-1.136,9.963-1.704,15.823-1.704h10.382v-6.446c0-3.191-0.308-6.016-0.921-8.473
			c-0.615-2.455-1.605-4.496-2.973-6.123c-1.368-1.627-3.14-2.855-5.316-3.685s-4.855-1.243-8.037-1.243
			c-3.404,0-6.461,0.446-9.167,1.336c-2.708,0.891-5.079,1.873-7.116,2.946c-2.038,1.075-3.74,2.058-5.107,2.947
			c-1.368,0.891-2.386,1.335-3.056,1.335c-0.447,0-0.837-0.122-1.172-0.368c-0.335-0.245-0.628-0.612-0.879-1.104
			c-0.251-0.491-0.433-1.12-0.544-1.889c-0.113-0.767-0.168-1.611-0.168-2.532c0-1.534,0.097-2.747,0.293-3.638
			c0.195-0.889,0.67-1.734,1.424-2.533c0.753-0.797,2.051-1.733,3.893-2.809c1.842-1.073,3.963-2.056,6.363-2.947
			c2.398-0.889,5.022-1.625,7.869-2.209s5.721-0.875,8.623-0.875c5.413,0,10.018,0.676,13.814,2.025
			c3.795,1.352,6.864,3.332,9.209,5.94c2.344,2.61,4.046,5.848,5.106,9.716c1.06,3.867,1.591,8.38,1.591,13.537V296.884z
			 M690.174,259.033h-11.805c-3.797,0-7.089,0.354-9.879,1.06c-2.792,0.706-5.107,1.75-6.949,3.131
			c-1.842,1.382-3.195,3.039-4.061,4.974c-0.866,1.934-1.298,4.159-1.298,6.676c0,4.299,1.242,7.722,3.726,10.269
			c2.483,2.549,5.958,3.822,10.424,3.822c3.627,0,6.99-1.014,10.088-3.039c3.098-2.026,6.349-5.126,9.754-9.302V259.033z"/>
	</g>
	
		<line fill="none" stroke="#000000" stroke-width="12" stroke-linecap="round" stroke-miterlimit="10" x1="221.604" y1="149.655" x2="247.448" y2="164.606"/>
</g>
<g id="Layer_2">
	<path opacity="0.4" fill="#1F977A" d="M734.652,117.599c-6.33,1.208-10.982,5.186-10.982,9.919v34.389
		c0,4.734,4.652,8.713,10.982,9.921V117.599z"/>
	<path fill="#1F977A" d="M29.5,74.607c0-10.216,8.955-18.5,20-18.5c0.313,0,0.619,0.03,0.929,0.043
		c-0.518-5.095-4.122-9.043-8.498-9.043H0v55h41.931c4.376,0,7.98-3.948,8.498-9.043c-0.31,0.013-0.616,0.043-0.929,0.043
		C38.455,93.107,29.5,84.823,29.5,74.607z"/>
	<path opacity="0.6" fill="#1F977A" d="M68.715,109.144H0v55h68.715c6.508,0,11.785-4.614,11.785-10.306V119.45
		C80.5,113.758,75.224,109.144,68.715,109.144z"/>
	<path opacity="0.4" fill="#1F977A" d="M110.5,215.876v-7.434c-4.105,4.783-11.513,6.403-18.085,4.024
		c-7.275-2.634-14.252-9.407-11.987-17.908c2.309-8.667,11.847-14.881,20.778-14.01c3.33,0.325,6.481,1.344,9.293,2.931v-1.993
		c0-1.762-0.646-3.419-1.781-4.87c-9.442,1.127-20.705,0.15-27.601,6.665c-10.502,9.921-7.533,25.49,4.411,32.837
		c5.723,3.521,14.801,7.16,22.211,5.7C109.472,220.14,110.5,218.092,110.5,215.876z"/>
	<path opacity="0.4" fill="#1F977A" stroke="#1F977A" stroke-width="2" stroke-miterlimit="10" d="M92.002,192.382
		c4.188-3.019,9.589-4.899,14.616-3.084c1.461,0.527,2.784,1.464,3.882,2.642v-5.022c-4.827-3.158-10.732-4.479-16.301-2.417
		c-6.036,2.234-12.633,7.94-10.896,15.187c2.354,9.813,19.923,16.105,25.745,5.815c2.848-5.033,1.41-13.935-5.924-13.987
		c-1.778-0.014-12.162,2.237-10.985,5.893c0.707,2.195,3.789,3.33,5.822,3.771c1.883,0.408,5.35,0.982,3.777-1.885
		c-0.931-1.696,1.66-3.21,2.591-1.514C111.208,210.321,78.572,202.066,92.002,192.382z"/>
	<path opacity="0.4" fill="#1F977A" d="M72.146,203.26c-2.209-9.161,1.523-19.955,10.237-24.503
		c7.353-3.838,15.532-3.715,23.534-4.674c-2.699-1.793-6.368-2.901-10.417-2.901H0v55h95.5c2.432,0,4.721-0.406,6.752-1.112
		C89.245,224.688,74.987,215.043,72.146,203.26z"/>
	<path opacity="0.2" fill="#1F977A" d="M125.899,235.922c-1.168-0.129-2.376-0.203-3.613-0.203H0v55h122.286
		c1.237,0,2.445-0.074,3.613-0.203l-24.814-27.297L125.899,235.922z"/>
	<path opacity="0.2" fill="#1F977A" d="M812.39,46.176H711.885c-1.237,0-2.445,0.083-3.613,0.238l24.814,31.762l-24.814,31.762
		c1.168,0.155,2.376,0.238,3.613,0.238H812.39V46.176z"/>
	<rect x="746.747" y="117.213" opacity="0.4" fill="#1F977A" width="65.643" height="55"/>
	<path opacity="0.6" fill="#1F977A" d="M811.5,179.25h-46.045c-6.508,0-11.785,4.614-11.785,10.305v34.391
		c0,5.691,5.277,10.307,11.785,10.307H811.5V179.25z"/>
	<path opacity="0.8" fill="#1F977A" d="M812.39,241.29h-20.151c-4.377,0-7.979,3.948-8.498,9.043
		c0.311-0.013,0.616-0.043,0.93-0.043c11.045,0,20,8.283,20,18.5c0,10.215-8.955,18.5-20,18.5c-0.313,0-0.619-0.03-0.93-0.043
		c0.52,5.096,4.122,9.043,8.498,9.043h20.151V241.29z"/>
</g>
</svg>
